%TF.GenerationSoftware,KiCad,Pcbnew,9.0.7*%
%TF.CreationDate,2026-01-09T15:07:01-08:00*%
%TF.ProjectId,W5500_LX9_AD9957_sramv2_gps,57353530-305f-44c5-9839-5f4144393935,rev?*%
%TF.SameCoordinates,Original*%
%TF.FileFunction,Paste,Bot*%
%TF.FilePolarity,Positive*%
%FSLAX46Y46*%
G04 Gerber Fmt 4.6, Leading zero omitted, Abs format (unit mm)*
G04 Created by KiCad (PCBNEW 9.0.7) date 2026-01-09 15:07:01*
%MOMM*%
%LPD*%
G01*
G04 APERTURE LIST*
G04 Aperture macros list*
%AMRoundRect*
0 Rectangle with rounded corners*
0 $1 Rounding radius*
0 $2 $3 $4 $5 $6 $7 $8 $9 X,Y pos of 4 corners*
0 Add a 4 corners polygon primitive as box body*
4,1,4,$2,$3,$4,$5,$6,$7,$8,$9,$2,$3,0*
0 Add four circle primitives for the rounded corners*
1,1,$1+$1,$2,$3*
1,1,$1+$1,$4,$5*
1,1,$1+$1,$6,$7*
1,1,$1+$1,$8,$9*
0 Add four rect primitives between the rounded corners*
20,1,$1+$1,$2,$3,$4,$5,0*
20,1,$1+$1,$4,$5,$6,$7,0*
20,1,$1+$1,$6,$7,$8,$9,0*
20,1,$1+$1,$8,$9,$2,$3,0*%
G04 Aperture macros list end*
%ADD10R,1.300000X1.600000*%
%ADD11R,1.600000X1.300000*%
%ADD12R,1.300000X1.500000*%
%ADD13R,1.600000X1.800000*%
%ADD14R,1.500000X1.300000*%
%ADD15R,3.800000X2.000000*%
%ADD16R,1.500000X2.000000*%
%ADD17R,2.000000X3.800000*%
%ADD18R,2.000000X1.500000*%
%ADD19R,1.500000X1.950000*%
%ADD20R,1.950000X1.500000*%
%ADD21R,1.600000X2.700000*%
%ADD22R,0.600000X2.200000*%
%ADD23R,1.100000X1.000000*%
%ADD24R,1.016000X1.016000*%
%ADD25RoundRect,0.222250X-0.222250X0.349250X-0.222250X-0.349250X0.222250X-0.349250X0.222250X0.349250X0*%
%ADD26R,1.800000X0.800000*%
%ADD27R,1.000000X0.950000*%
%ADD28R,0.900000X0.700000*%
%ADD29R,0.700000X0.900000*%
G04 APERTURE END LIST*
D10*
%TO.C,R2*%
X137551100Y-106349850D03*
X135651100Y-106349850D03*
%TD*%
D11*
%TO.C,R3*%
X179146100Y-93806100D03*
X179146100Y-91906100D03*
%TD*%
D12*
%TO.C,C1*%
X118659850Y-112541100D03*
X116759850Y-112541100D03*
%TD*%
%TO.C,C2*%
X118659850Y-119208600D03*
X116759850Y-119208600D03*
%TD*%
D13*
%TO.C,C3*%
X110912350Y-123336100D03*
X113712350Y-123336100D03*
%TD*%
D12*
%TO.C,R4*%
X118659850Y-114763600D03*
X116759850Y-114763600D03*
%TD*%
%TO.C,R5*%
X118659850Y-116986100D03*
X116759850Y-116986100D03*
%TD*%
%TO.C,C4*%
X109769850Y-116986100D03*
X107869850Y-116986100D03*
%TD*%
%TO.C,R6*%
X107869850Y-111271100D03*
X109769850Y-111271100D03*
%TD*%
%TO.C,R7*%
X110727350Y-109048600D03*
X112627350Y-109048600D03*
%TD*%
%TO.C,R8*%
X109769850Y-113176100D03*
X107869850Y-113176100D03*
%TD*%
%TO.C,C5*%
X109769850Y-115081100D03*
X107869850Y-115081100D03*
%TD*%
%TO.C,C7*%
X122474850Y-106032350D03*
X124374850Y-106032350D03*
%TD*%
%TO.C,C8*%
X116124850Y-101428600D03*
X118024850Y-101428600D03*
%TD*%
%TO.C,R11*%
X100567350Y-115716100D03*
X102467350Y-115716100D03*
%TD*%
%TO.C,R12*%
X100567350Y-113493600D03*
X102467350Y-113493600D03*
%TD*%
%TO.C,C13*%
X187562350Y-104286100D03*
X189462350Y-104286100D03*
%TD*%
D14*
%TO.C,C18*%
X183749850Y-104764850D03*
X183749850Y-106664850D03*
%TD*%
%TO.C,C20*%
X173589850Y-111903600D03*
X173589850Y-110003600D03*
%TD*%
%TO.C,C22*%
X168192350Y-87778600D03*
X168192350Y-89678600D03*
%TD*%
%TO.C,C23*%
X175812350Y-85238600D03*
X175812350Y-87138600D03*
%TD*%
D12*
%TO.C,C27*%
X126597350Y-107778600D03*
X124697350Y-107778600D03*
%TD*%
D14*
%TO.C,C28*%
X113741100Y-92536100D03*
X113741100Y-90636100D03*
%TD*%
%TO.C,C29*%
X149142350Y-115396100D03*
X149142350Y-113496100D03*
%TD*%
%TO.C,C30*%
X130409850Y-85079850D03*
X130409850Y-86979850D03*
%TD*%
%TO.C,C31*%
X111518600Y-91424850D03*
X111518600Y-89524850D03*
%TD*%
D15*
%TO.C,IC5*%
X190417350Y-90926100D03*
D16*
X192717350Y-84626100D03*
X190417350Y-84626100D03*
X188117350Y-84626100D03*
%TD*%
D12*
%TO.C,C33*%
X184546100Y-94443600D03*
X186446100Y-94443600D03*
%TD*%
%TO.C,C34*%
X180736100Y-89681100D03*
X182636100Y-89681100D03*
%TD*%
D17*
%TO.C,IC6*%
X139116100Y-89363600D03*
D18*
X132816100Y-87063600D03*
X132816100Y-89363600D03*
X132816100Y-91663600D03*
%TD*%
D12*
%TO.C,R10*%
X141524850Y-88887350D03*
X143424850Y-88887350D03*
%TD*%
D19*
%TO.C,C36*%
X141363600Y-84337350D03*
X141363600Y-87087350D03*
%TD*%
D20*
%TO.C,C37*%
X155121100Y-109048600D03*
X152371100Y-109048600D03*
%TD*%
D14*
%TO.C,C38*%
X163112350Y-99203600D03*
X163112350Y-97303600D03*
%TD*%
%TO.C,C39*%
X151523600Y-90313600D03*
X151523600Y-88413600D03*
%TD*%
%TO.C,C40*%
X150094850Y-110951100D03*
X150094850Y-109051100D03*
%TD*%
%TO.C,R15*%
X188512350Y-102299225D03*
X188512350Y-100399225D03*
%TD*%
%TO.C,C10*%
X135648600Y-104759850D03*
X135648600Y-102859850D03*
%TD*%
%TO.C,C49*%
X177399850Y-118576100D03*
X177399850Y-120476100D03*
%TD*%
%TO.C,C50*%
X145491100Y-84127350D03*
X145491100Y-86027350D03*
%TD*%
%TO.C,C51*%
X176606100Y-89207350D03*
X176606100Y-91107350D03*
%TD*%
D12*
%TO.C,C52*%
X171206100Y-93491100D03*
X169306100Y-93491100D03*
%TD*%
D14*
%TO.C,C53*%
X179304850Y-107776100D03*
X179304850Y-105876100D03*
%TD*%
%TO.C,C19*%
X181686100Y-99684850D03*
X181686100Y-101584850D03*
%TD*%
D21*
%TO.C,R20*%
X165046100Y-97777350D03*
X167846100Y-97777350D03*
%TD*%
D14*
%TO.C,C54*%
X164541100Y-89842350D03*
X164541100Y-91742350D03*
%TD*%
%TO.C,C55*%
X164858600Y-109209850D03*
X164858600Y-111109850D03*
%TD*%
D10*
%TO.C,R19*%
X177238600Y-93649850D03*
X175338600Y-93649850D03*
%TD*%
D14*
%TO.C,C56*%
X127234850Y-118893600D03*
X127234850Y-120793600D03*
%TD*%
D12*
%TO.C,C58*%
X110404850Y-104762350D03*
X108504850Y-104762350D03*
%TD*%
D20*
%TO.C,C59*%
X183644850Y-101428600D03*
X186394850Y-101428600D03*
%TD*%
D22*
%TO.C,IC8*%
X146602350Y-97678600D03*
X145332350Y-97678600D03*
X142792350Y-97678600D03*
X146602350Y-92478600D03*
X145332350Y-92478600D03*
X142792350Y-92478600D03*
X144062350Y-97678600D03*
X144062350Y-92478600D03*
%TD*%
D23*
%TO.C,R23*%
X147713600Y-83274850D03*
X147713600Y-84974850D03*
%TD*%
D22*
%TO.C,IC9*%
X146602350Y-105616100D03*
X145332350Y-105616100D03*
X142792350Y-105616100D03*
X146602350Y-100416100D03*
X145332350Y-100416100D03*
X142792350Y-100416100D03*
X144062350Y-105616100D03*
X144062350Y-100416100D03*
%TD*%
D12*
%TO.C,C41*%
X134857350Y-99999850D03*
X136757350Y-99999850D03*
%TD*%
D24*
%TO.C,C75*%
X186766100Y-97459850D03*
X188671100Y-97459850D03*
%TD*%
D25*
%TO.C,X4*%
X190798350Y-96031100D03*
X190798350Y-93491100D03*
X188766350Y-96031100D03*
X188766350Y-93491100D03*
%TD*%
D24*
%TO.C,C78*%
X190099850Y-97459850D03*
X190099850Y-99364850D03*
%TD*%
D26*
%TO.C,U$1*%
X160304850Y-94323600D03*
X160304850Y-98723600D03*
X160304850Y-101723600D03*
X160304850Y-102823600D03*
X160304850Y-103923600D03*
X160304850Y-105023600D03*
X160304850Y-106123600D03*
X148304850Y-92123600D03*
X148304850Y-93223600D03*
X148304850Y-94323600D03*
X148304850Y-95423600D03*
X148304850Y-96523600D03*
X148304850Y-106123600D03*
%TD*%
D27*
%TO.C,L2*%
X162794850Y-106673600D03*
X162794850Y-105073600D03*
%TD*%
D28*
%TO.C,R39*%
X162794850Y-103318600D03*
X162794850Y-104618600D03*
%TD*%
D24*
%TO.C,C79*%
X162794850Y-102698600D03*
X162794850Y-100793600D03*
%TD*%
D28*
%TO.C,R40*%
X170732350Y-89824850D03*
X170732350Y-91124850D03*
%TD*%
D29*
%TO.C,R22*%
X147411100Y-88728600D03*
X146111100Y-88728600D03*
%TD*%
D23*
%TO.C,R41*%
X192401725Y-94579225D03*
X192401725Y-92879225D03*
%TD*%
M02*
