%TF.GenerationSoftware,KiCad,Pcbnew,9.0.7*%
%TF.CreationDate,2026-01-09T15:07:01-08:00*%
%TF.ProjectId,W5500_LX9_AD9957_sramv2_gps,57353530-305f-44c5-9839-5f4144393935,rev?*%
%TF.SameCoordinates,Original*%
%TF.FileFunction,Paste,Top*%
%TF.FilePolarity,Positive*%
%FSLAX46Y46*%
G04 Gerber Fmt 4.6, Leading zero omitted, Abs format (unit mm)*
G04 Created by KiCad (PCBNEW 9.0.7) date 2026-01-09 15:07:01*
%MOMM*%
%LPD*%
G01*
G04 APERTURE LIST*
G04 Aperture macros list*
%AMRoundRect*
0 Rectangle with rounded corners*
0 $1 Rounding radius*
0 $2 $3 $4 $5 $6 $7 $8 $9 X,Y pos of 4 corners*
0 Add a 4 corners polygon primitive as box body*
4,1,4,$2,$3,$4,$5,$6,$7,$8,$9,$2,$3,0*
0 Add four circle primitives for the rounded corners*
1,1,$1+$1,$2,$3*
1,1,$1+$1,$4,$5*
1,1,$1+$1,$6,$7*
1,1,$1+$1,$8,$9*
0 Add four rect primitives between the rounded corners*
20,1,$1+$1,$2,$3,$4,$5,0*
20,1,$1+$1,$4,$5,$6,$7,0*
20,1,$1+$1,$6,$7,$8,$9,0*
20,1,$1+$1,$8,$9,$2,$3,0*%
G04 Aperture macros list end*
%ADD10C,0.000000*%
%ADD11R,0.300000X1.500000*%
%ADD12R,1.500000X0.300000*%
%ADD13R,0.300000X1.600000*%
%ADD14R,1.600000X0.300000*%
%ADD15R,5.003800X5.003800*%
%ADD16R,1.473200X0.279400*%
%ADD17R,0.279400X1.473200*%
%ADD18R,1.600000X1.300000*%
%ADD19R,2.200000X0.600000*%
%ADD20R,1.500000X1.300000*%
%ADD21R,1.300000X1.500000*%
%ADD22R,1.200000X1.400000*%
%ADD23R,1.950000X1.500000*%
%ADD24R,1.500000X1.950000*%
%ADD25R,1.016000X1.778000*%
%ADD26R,1.778000X1.016000*%
%ADD27R,1.500000X1.500000*%
%ADD28R,0.760000X2.050000*%
%ADD29R,1.200000X1.600000*%
%ADD30R,1.600000X1.200000*%
%ADD31R,1.651000X0.762000*%
%ADD32R,1.100000X1.000000*%
%ADD33R,1.000000X0.950000*%
%ADD34R,1.016000X1.016000*%
%ADD35R,0.600000X2.200000*%
%ADD36R,1.000000X1.100000*%
%ADD37R,1.800000X1.600000*%
%ADD38R,3.250000X2.500000*%
%ADD39R,3.800000X2.000000*%
%ADD40R,1.500000X2.000000*%
%ADD41R,0.900000X0.700000*%
%ADD42R,3.175000X2.540000*%
%ADD43R,3.048000X2.540000*%
%ADD44R,1.270000X1.270000*%
%ADD45RoundRect,0.250000X0.250000X-0.275000X0.250000X0.275000X-0.250000X0.275000X-0.250000X-0.275000X0*%
%ADD46RoundRect,0.262500X-0.262500X0.837500X-0.262500X-0.837500X0.262500X-0.837500X0.262500X0.837500X0*%
%ADD47R,0.600000X1.200000*%
G04 APERTURE END LIST*
D10*
%TO.C,IC7*%
G36*
X187824850Y-122519850D02*
G01*
X186024850Y-122519850D01*
X186024850Y-120319850D01*
X187824850Y-120319850D01*
X187824850Y-122519850D01*
G37*
G36*
X188824850Y-119039850D02*
G01*
X188024850Y-119039850D01*
X188024850Y-117639850D01*
X188824850Y-117639850D01*
X188824850Y-119039850D01*
G37*
G36*
X185824850Y-119039850D02*
G01*
X185024850Y-119039850D01*
X185024850Y-117639850D01*
X185824850Y-117639850D01*
X185824850Y-119039850D01*
G37*
G36*
X187324850Y-119039850D02*
G01*
X186524850Y-119039850D01*
X186524850Y-117639850D01*
X187324850Y-117639850D01*
X187324850Y-119039850D01*
G37*
%TO.C,X3*%
G36*
X197205500Y-95677100D02*
G01*
X195071900Y-95677100D01*
X195071900Y-94864300D01*
X197205500Y-94864300D01*
X197205500Y-95677100D01*
G37*
G36*
X197205500Y-98467900D02*
G01*
X195071900Y-98467900D01*
X195071900Y-97655100D01*
X197205500Y-97655100D01*
X197205500Y-98467900D01*
G37*
G36*
X194995700Y-97148700D02*
G01*
X194233700Y-97148700D01*
X194233700Y-96183500D01*
X194995700Y-96183500D01*
X194995700Y-97148700D01*
G37*
%TD*%
D11*
%TO.C,U1*%
X118452350Y-94756100D03*
X118952350Y-94756100D03*
X119452350Y-94756100D03*
X119952350Y-94756100D03*
X120452350Y-94756100D03*
X120952350Y-94756100D03*
X121452350Y-94756100D03*
X121952350Y-94756100D03*
X122452350Y-94756100D03*
X122952350Y-94756100D03*
X123452350Y-94756100D03*
X123952350Y-94756100D03*
D12*
X125652350Y-96456100D03*
X125652350Y-96956100D03*
X125652350Y-97456100D03*
X125652350Y-97956100D03*
X125652350Y-98456100D03*
X125652350Y-98956100D03*
X125652350Y-99456100D03*
X125652350Y-99956100D03*
X125652350Y-100456100D03*
X125652350Y-100956100D03*
X125652350Y-101456100D03*
X125652350Y-101956100D03*
D11*
X123952350Y-103656100D03*
X123452350Y-103656100D03*
X122952350Y-103656100D03*
X122452350Y-103656100D03*
X121952350Y-103656100D03*
X121452350Y-103656100D03*
X120952350Y-103656100D03*
X120452350Y-103656100D03*
X119952350Y-103656100D03*
X119452350Y-103656100D03*
X118952350Y-103656100D03*
X118452350Y-103656100D03*
D12*
X116752350Y-101956100D03*
X116752350Y-101456100D03*
X116752350Y-100956100D03*
X116752350Y-100456100D03*
X116752350Y-99956100D03*
X116752350Y-99456100D03*
X116752350Y-98956100D03*
X116752350Y-98456100D03*
X116752350Y-97956100D03*
X116752350Y-97456100D03*
X116752350Y-96956100D03*
X116752350Y-96456100D03*
%TD*%
D13*
%TO.C,U2*%
X141027350Y-88423600D03*
X141527350Y-88423600D03*
X142027350Y-88423600D03*
X142527350Y-88423600D03*
X143027350Y-88423600D03*
X143527350Y-88423600D03*
X144027350Y-88423600D03*
X144527350Y-88423600D03*
X145027350Y-88423600D03*
X145527350Y-88423600D03*
X146027350Y-88423600D03*
X146527350Y-88423600D03*
X147027350Y-88423600D03*
X147527350Y-88423600D03*
X148027350Y-88423600D03*
X148527350Y-88423600D03*
X149027350Y-88423600D03*
X149527350Y-88423600D03*
X150027350Y-88423600D03*
X150527350Y-88423600D03*
X151027350Y-88423600D03*
X151527350Y-88423600D03*
X152027350Y-88423600D03*
X152527350Y-88423600D03*
X153027350Y-88423600D03*
X153527350Y-88423600D03*
X154027350Y-88423600D03*
X154527350Y-88423600D03*
X155027350Y-88423600D03*
X155527350Y-88423600D03*
X156027350Y-88423600D03*
X156527350Y-88423600D03*
X157027350Y-88423600D03*
X157527350Y-88423600D03*
X158027350Y-88423600D03*
X158527350Y-88423600D03*
D14*
X160877350Y-90773600D03*
X160877350Y-91273600D03*
X160877350Y-91773600D03*
X160877350Y-92273600D03*
X160877350Y-92773600D03*
X160877350Y-93273600D03*
X160877350Y-93773600D03*
X160877350Y-94273600D03*
X160877350Y-94773600D03*
X160877350Y-95273600D03*
X160877350Y-95773600D03*
X160877350Y-96273600D03*
X160877350Y-96773600D03*
X160877350Y-97273600D03*
X160877350Y-97773600D03*
X160877350Y-98273600D03*
X160877350Y-98773600D03*
X160877350Y-99273600D03*
X160877350Y-99773600D03*
X160877350Y-100273600D03*
X160877350Y-100773600D03*
X160877350Y-101273600D03*
X160877350Y-101773600D03*
X160877350Y-102273600D03*
X160877350Y-102773600D03*
X160877350Y-103273600D03*
X160877350Y-103773600D03*
X160877350Y-104273600D03*
X160877350Y-104773600D03*
X160877350Y-105273600D03*
X160877350Y-105773600D03*
X160877350Y-106273600D03*
X160877350Y-106773600D03*
X160877350Y-107273600D03*
X160877350Y-107773600D03*
X160877350Y-108273600D03*
D13*
X158527350Y-110623600D03*
X158027350Y-110623600D03*
X157527350Y-110623600D03*
X157027350Y-110623600D03*
X156527350Y-110623600D03*
X156027350Y-110623600D03*
X155527350Y-110623600D03*
X155027350Y-110623600D03*
X154527350Y-110623600D03*
X154027350Y-110623600D03*
X153527350Y-110623600D03*
X153027350Y-110623600D03*
X152527350Y-110623600D03*
X152027350Y-110623600D03*
X151527350Y-110623600D03*
X151027350Y-110623600D03*
X150527350Y-110623600D03*
X150027350Y-110623600D03*
X149527350Y-110623600D03*
X149027350Y-110623600D03*
X148527350Y-110623600D03*
X148027350Y-110623600D03*
X147527350Y-110623600D03*
X147027350Y-110623600D03*
X146527350Y-110623600D03*
X146027350Y-110623600D03*
X145527350Y-110623600D03*
X145027350Y-110623600D03*
X144527350Y-110623600D03*
X144027350Y-110623600D03*
X143527350Y-110623600D03*
X143027350Y-110623600D03*
X142527350Y-110623600D03*
X142027350Y-110623600D03*
X141527350Y-110623600D03*
X141027350Y-110623600D03*
D14*
X138677350Y-108273600D03*
X138677350Y-107773600D03*
X138677350Y-107273600D03*
X138677350Y-106773600D03*
X138677350Y-106273600D03*
X138677350Y-105773600D03*
X138677350Y-105273600D03*
X138677350Y-104773600D03*
X138677350Y-104273600D03*
X138677350Y-103773600D03*
X138677350Y-103273600D03*
X138677350Y-102773600D03*
X138677350Y-102273600D03*
X138677350Y-101773600D03*
X138677350Y-101273600D03*
X138677350Y-100773600D03*
X138677350Y-100273600D03*
X138677350Y-99773600D03*
X138677350Y-99273600D03*
X138677350Y-98773600D03*
X138677350Y-98273600D03*
X138677350Y-97773600D03*
X138677350Y-97273600D03*
X138677350Y-96773600D03*
X138677350Y-96273600D03*
X138677350Y-95773600D03*
X138677350Y-95273600D03*
X138677350Y-94773600D03*
X138677350Y-94273600D03*
X138677350Y-93773600D03*
X138677350Y-93273600D03*
X138677350Y-92773600D03*
X138677350Y-92273600D03*
X138677350Y-91773600D03*
X138677350Y-91273600D03*
X138677350Y-90773600D03*
%TD*%
D15*
%TO.C,U3*%
X177717350Y-98253600D03*
D16*
X185337350Y-92259200D03*
X185337350Y-92741800D03*
X185337350Y-93249800D03*
X185337350Y-93757800D03*
X185337350Y-94265800D03*
X185337350Y-94748400D03*
X185337350Y-95256400D03*
X185337350Y-95764400D03*
X185337350Y-96247000D03*
X185337350Y-96755000D03*
X185337350Y-97263000D03*
X185337350Y-97745600D03*
X185337350Y-98253600D03*
X185337350Y-98761600D03*
X185337350Y-99244200D03*
X185337350Y-99752200D03*
X185337350Y-100260200D03*
X185337350Y-100742800D03*
X185337350Y-101250800D03*
X185337350Y-101758800D03*
X185337350Y-102241400D03*
X185337350Y-102749400D03*
X185337350Y-103257400D03*
X185337350Y-103765400D03*
X185337350Y-104248000D03*
D17*
X183711750Y-105873600D03*
X183229150Y-105873600D03*
X182721150Y-105873600D03*
X182213150Y-105873600D03*
X181705150Y-105873600D03*
X181222550Y-105873600D03*
X180714550Y-105873600D03*
X180206550Y-105873600D03*
X179723950Y-105873600D03*
X179215950Y-105873600D03*
X178707950Y-105873600D03*
X178225350Y-105873600D03*
X177717350Y-105873600D03*
X177209350Y-105873600D03*
X176726750Y-105873600D03*
X176218750Y-105873600D03*
X175710750Y-105873600D03*
X175228150Y-105873600D03*
X174720150Y-105873600D03*
X174212150Y-105873600D03*
X173729550Y-105873600D03*
X173221550Y-105873600D03*
X172713550Y-105873600D03*
X172205550Y-105873600D03*
X171722950Y-105873600D03*
D16*
X170097350Y-104248000D03*
X170097350Y-103765400D03*
X170097350Y-103257400D03*
X170097350Y-102749400D03*
X170097350Y-102241400D03*
X170097350Y-101758800D03*
X170097350Y-101250800D03*
X170097350Y-100742800D03*
X170097350Y-100260200D03*
X170097350Y-99752200D03*
X170097350Y-99244200D03*
X170097350Y-98761600D03*
X170097350Y-98253600D03*
X170097350Y-97745600D03*
X170097350Y-97263000D03*
X170097350Y-96755000D03*
X170097350Y-96247000D03*
X170097350Y-95764400D03*
X170097350Y-95256400D03*
X170097350Y-94748400D03*
X170097350Y-94265800D03*
X170097350Y-93757800D03*
X170097350Y-93249800D03*
X170097350Y-92741800D03*
X170097350Y-92259200D03*
D17*
X171722950Y-90633600D03*
X172205550Y-90633600D03*
X172713550Y-90633600D03*
X173221550Y-90633600D03*
X173729550Y-90633600D03*
X174212150Y-90633600D03*
X174720150Y-90633600D03*
X175228150Y-90633600D03*
X175710750Y-90633600D03*
X176218750Y-90633600D03*
X176726750Y-90633600D03*
X177209350Y-90633600D03*
X177717350Y-90633600D03*
X178225350Y-90633600D03*
X178707950Y-90633600D03*
X179215950Y-90633600D03*
X179723950Y-90633600D03*
X180206550Y-90633600D03*
X180714550Y-90633600D03*
X181222550Y-90633600D03*
X181705150Y-90633600D03*
X182213150Y-90633600D03*
X182721150Y-90633600D03*
X183229150Y-90633600D03*
X183711750Y-90633600D03*
%TD*%
D18*
%TO.C,R1*%
X158701100Y-112702350D03*
X158701100Y-114602350D03*
%TD*%
D19*
%TO.C,IC2*%
X151304850Y-120796100D03*
X151304850Y-122066100D03*
X151304850Y-124606100D03*
X156504850Y-120796100D03*
X156504850Y-122066100D03*
X156504850Y-124606100D03*
X151304850Y-123336100D03*
X156504850Y-123336100D03*
%TD*%
D20*
%TO.C,R9*%
X116122350Y-103336100D03*
X116122350Y-105236100D03*
%TD*%
%TO.C,C6*%
X112947350Y-102701100D03*
X112947350Y-104601100D03*
%TD*%
D21*
%TO.C,C11*%
X129931100Y-102539850D03*
X128031100Y-102539850D03*
%TD*%
%TO.C,C12*%
X124062350Y-105556100D03*
X125962350Y-105556100D03*
%TD*%
D22*
%TO.C,Q1*%
X129609850Y-96836100D03*
X131209850Y-96836100D03*
X131209850Y-99036100D03*
X129609850Y-99036100D03*
%TD*%
D21*
%TO.C,R13*%
X131047350Y-95078600D03*
X132947350Y-95078600D03*
%TD*%
%TO.C,C14*%
X134852350Y-97618600D03*
X132952350Y-97618600D03*
%TD*%
%TO.C,C15*%
X131047350Y-93173600D03*
X132947350Y-93173600D03*
%TD*%
D23*
%TO.C,C9*%
X119351100Y-106984850D03*
X122101100Y-106984850D03*
%TD*%
D24*
%TO.C,C16*%
X110724850Y-99418600D03*
X110724850Y-102168600D03*
%TD*%
D20*
%TO.C,C21*%
X167081100Y-110321100D03*
X167081100Y-112221100D03*
%TD*%
D24*
%TO.C,C24*%
X175812350Y-84019850D03*
X175812350Y-86769850D03*
%TD*%
%TO.C,C25*%
X148666100Y-125584225D03*
X148666100Y-122834225D03*
%TD*%
D23*
%TO.C,C26*%
X176977350Y-112223600D03*
X179727350Y-112223600D03*
%TD*%
%TO.C,C32*%
X113846100Y-94443600D03*
X111096100Y-94443600D03*
%TD*%
D24*
%TO.C,C35*%
X180733600Y-84972350D03*
X180733600Y-87722350D03*
%TD*%
D21*
%TO.C,R14*%
X136757350Y-96031100D03*
X134857350Y-96031100D03*
%TD*%
D20*
%TO.C,R17*%
X188988600Y-105236100D03*
X188988600Y-103336100D03*
%TD*%
%TO.C,R18*%
X188988600Y-101584850D03*
X188988600Y-99684850D03*
%TD*%
D21*
%TO.C,C42*%
X195018600Y-99206100D03*
X193118600Y-99206100D03*
%TD*%
D20*
%TO.C,C43*%
X188988600Y-93017350D03*
X188988600Y-94917350D03*
%TD*%
D21*
%TO.C,C44*%
X184541100Y-87776100D03*
X182641100Y-87776100D03*
%TD*%
D20*
%TO.C,C45*%
X182638600Y-84286100D03*
X182638600Y-86186100D03*
%TD*%
%TO.C,R16*%
X184543600Y-86186100D03*
X184543600Y-84286100D03*
%TD*%
D25*
%TO.C,U$2*%
X190925350Y-107334100D03*
X194989350Y-107334100D03*
X194989350Y-115589100D03*
X190925350Y-115589100D03*
X192957350Y-115589100D03*
D26*
X188956850Y-111461600D03*
X197211850Y-111461600D03*
D25*
X192957350Y-107334100D03*
%TD*%
D21*
%TO.C,C46*%
X188827350Y-125082350D03*
X186927350Y-125082350D03*
%TD*%
D20*
%TO.C,C47*%
X179463600Y-122227350D03*
X179463600Y-124127350D03*
%TD*%
%TO.C,C48*%
X179463600Y-127461100D03*
X179463600Y-125561100D03*
%TD*%
%TO.C,JMP1*%
X180257350Y-114968600D03*
X180257350Y-116668600D03*
X180257350Y-118368600D03*
%TD*%
D27*
%TO.C,LED2*%
X158826100Y-119529850D03*
X158826100Y-116029850D03*
%TD*%
D21*
%TO.C,C57*%
X151287975Y-126193600D03*
X153187975Y-126193600D03*
%TD*%
D28*
%TO.C,X2*%
X142474850Y-83364850D03*
X141204850Y-83364850D03*
X143744850Y-83364850D03*
X139934850Y-83364850D03*
X145014850Y-83364850D03*
X138664850Y-83364850D03*
X146284850Y-83364850D03*
X137394850Y-83364850D03*
%TD*%
D20*
%TO.C,R21*%
X188988600Y-96192350D03*
X188988600Y-98092350D03*
%TD*%
D29*
%TO.C,L3*%
X184456100Y-125399850D03*
X181456100Y-125399850D03*
%TD*%
D30*
%TO.C,L4*%
X108184850Y-99134850D03*
X108184850Y-102134850D03*
%TD*%
D31*
%TO.C,T1*%
X191160300Y-101269850D03*
X191160300Y-102539850D03*
X191160300Y-103809850D03*
X194436900Y-101269850D03*
X194436900Y-103809850D03*
%TD*%
D32*
%TO.C,R22\u002A0*%
X187242350Y-97603600D03*
X187242350Y-95903600D03*
%TD*%
D33*
%TO.C,L1*%
X192957350Y-107772350D03*
X192957350Y-109372350D03*
%TD*%
%TO.C,L5*%
X192957350Y-113487350D03*
X192957350Y-115087350D03*
%TD*%
%TO.C,L6*%
X192957350Y-110629850D03*
X192957350Y-112229850D03*
%TD*%
D34*
%TO.C,C60*%
X192957350Y-115398600D03*
X191052350Y-115398600D03*
%TD*%
%TO.C,C61*%
X191528600Y-112223600D03*
X189623600Y-112223600D03*
%TD*%
%TO.C,C62*%
X191528600Y-110636100D03*
X189623600Y-110636100D03*
%TD*%
%TO.C,C63*%
X192957350Y-107143600D03*
X191052350Y-107143600D03*
%TD*%
%TO.C,C17*%
X191369850Y-118097350D03*
X189464850Y-118097350D03*
%TD*%
D35*
%TO.C,IC10*%
X170573600Y-124348600D03*
X171843600Y-124348600D03*
X174383600Y-124348600D03*
X170573600Y-119148600D03*
X171843600Y-119148600D03*
X174383600Y-119148600D03*
X173113600Y-124348600D03*
X173113600Y-119148600D03*
%TD*%
D34*
%TO.C,C64*%
X171843600Y-126352350D03*
X173748600Y-126352350D03*
%TD*%
D36*
%TO.C,R24*%
X176662350Y-126669850D03*
X174962350Y-126669850D03*
%TD*%
D37*
%TO.C,C65*%
X177399850Y-120824850D03*
X177399850Y-123624850D03*
%TD*%
D34*
%TO.C,C66*%
X175653600Y-120637350D03*
X175653600Y-118732350D03*
%TD*%
%TO.C,C67*%
X175812350Y-125241100D03*
X177717350Y-125241100D03*
%TD*%
D36*
%TO.C,R25*%
X168612350Y-126511100D03*
X170312350Y-126511100D03*
%TD*%
%TO.C,R26*%
X167137350Y-126511100D03*
X165437350Y-126511100D03*
%TD*%
D38*
%TO.C,L7*%
X166287350Y-124113600D03*
X166287350Y-118113600D03*
%TD*%
D37*
%TO.C,C68*%
X161524850Y-120666100D03*
X161524850Y-123466100D03*
%TD*%
D32*
%TO.C,R27*%
X175653600Y-123551100D03*
X175653600Y-121851100D03*
%TD*%
D35*
%TO.C,IC11*%
X118344850Y-84858600D03*
X117074850Y-84858600D03*
X114534850Y-84858600D03*
X118344850Y-90058600D03*
X117074850Y-90058600D03*
X114534850Y-90058600D03*
X115804850Y-84858600D03*
X115804850Y-90058600D03*
%TD*%
D34*
%TO.C,C69*%
X117074850Y-82854850D03*
X115169850Y-82854850D03*
%TD*%
D36*
%TO.C,R28*%
X112256100Y-82854850D03*
X113956100Y-82854850D03*
%TD*%
D37*
%TO.C,C70*%
X111359850Y-88699850D03*
X111359850Y-85899850D03*
%TD*%
D34*
%TO.C,C71*%
X113106100Y-88887350D03*
X113106100Y-90792350D03*
%TD*%
%TO.C,C72*%
X113264850Y-84283600D03*
X111359850Y-84283600D03*
%TD*%
D36*
%TO.C,R29*%
X120306100Y-82854850D03*
X118606100Y-82854850D03*
%TD*%
%TO.C,R30*%
X121781100Y-82854850D03*
X123481100Y-82854850D03*
%TD*%
D38*
%TO.C,L8*%
X122789850Y-85093600D03*
X122789850Y-91093600D03*
%TD*%
D37*
%TO.C,C73*%
X127552350Y-87906100D03*
X127552350Y-85106100D03*
%TD*%
D32*
%TO.C,R31*%
X113106100Y-85814850D03*
X113106100Y-87514850D03*
%TD*%
D39*
%TO.C,IC12*%
X185019850Y-108756100D03*
D40*
X187319850Y-115056100D03*
X185019850Y-115056100D03*
X182719850Y-115056100D03*
%TD*%
D41*
%TO.C,R32*%
X187401100Y-95569850D03*
X187401100Y-94269850D03*
%TD*%
%TO.C,R33*%
X187401100Y-92999850D03*
X187401100Y-94299850D03*
%TD*%
%TO.C,R34*%
X195021100Y-98268600D03*
X195021100Y-96968600D03*
%TD*%
D34*
%TO.C,C74*%
X193274850Y-96666100D03*
X195179850Y-96666100D03*
%TD*%
D22*
%TO.C,Q2*%
X190728600Y-94772350D03*
X192328600Y-94772350D03*
X192328600Y-96972350D03*
X190728600Y-96972350D03*
%TD*%
D42*
%TO.C,C76*%
X187718600Y-83489850D03*
D43*
X187718600Y-89839850D03*
%TD*%
D44*
%TO.C,C77*%
X191211100Y-87458600D03*
X191211100Y-84918600D03*
%TD*%
D36*
%TO.C,R36*%
X192219850Y-90633600D03*
X190519850Y-90633600D03*
%TD*%
%TO.C,R37*%
X190519850Y-89204850D03*
X192219850Y-89204850D03*
%TD*%
D32*
%TO.C,R38*%
X192798600Y-87514850D03*
X192798600Y-85814850D03*
%TD*%
D45*
%TO.C,ANT1*%
X163429850Y-109588350D03*
D46*
X161929850Y-111112350D03*
X164929850Y-111112350D03*
%TD*%
D34*
%TO.C,C80*%
X148348600Y-86664850D03*
X148348600Y-84759850D03*
%TD*%
D47*
%TO.C,IC1*%
X137315475Y-123567800D03*
X136045475Y-123567800D03*
X134775475Y-123567800D03*
X133505475Y-123567800D03*
X132235475Y-123567800D03*
X130965475Y-123567800D03*
X129695475Y-123567800D03*
X128425475Y-123567800D03*
X127155475Y-123567800D03*
X125885475Y-123567800D03*
X124615475Y-123567800D03*
X123345475Y-123567800D03*
X122075475Y-123567800D03*
X120805475Y-123567800D03*
X119535475Y-123567800D03*
X118265475Y-123567800D03*
X118265475Y-112311400D03*
X119535475Y-112311400D03*
X120805475Y-112311400D03*
X122075475Y-112311400D03*
X123345475Y-112311400D03*
X124615475Y-112311400D03*
X125885475Y-112311400D03*
X127155475Y-112311400D03*
X128425475Y-112311400D03*
X129695475Y-112311400D03*
X130965475Y-112311400D03*
X132235475Y-112311400D03*
X133505475Y-112311400D03*
X134775475Y-112311400D03*
X136045475Y-112311400D03*
X137315475Y-112311400D03*
%TD*%
M02*
