%TF.GenerationSoftware,KiCad,Pcbnew,9.0.7*%
%TF.CreationDate,2026-01-09T15:07:01-08:00*%
%TF.ProjectId,W5500_LX9_AD9957_sramv2_gps,57353530-305f-44c5-9839-5f4144393935,rev?*%
%TF.SameCoordinates,Original*%
%TF.FileFunction,Soldermask,Bot*%
%TF.FilePolarity,Negative*%
%FSLAX46Y46*%
G04 Gerber Fmt 4.6, Leading zero omitted, Abs format (unit mm)*
G04 Created by KiCad (PCBNEW 9.0.7) date 2026-01-09 15:07:01*
%MOMM*%
%LPD*%
G01*
G04 APERTURE LIST*
G04 Aperture macros list*
%AMRoundRect*
0 Rectangle with rounded corners*
0 $1 Rounding radius*
0 $2 $3 $4 $5 $6 $7 $8 $9 X,Y pos of 4 corners*
0 Add a 4 corners polygon primitive as box body*
4,1,4,$2,$3,$4,$5,$6,$7,$8,$9,$2,$3,0*
0 Add four circle primitives for the rounded corners*
1,1,$1+$1,$2,$3*
1,1,$1+$1,$4,$5*
1,1,$1+$1,$6,$7*
1,1,$1+$1,$8,$9*
0 Add four rect primitives between the rounded corners*
20,1,$1+$1,$2,$3,$4,$5,0*
20,1,$1+$1,$4,$5,$6,$7,0*
20,1,$1+$1,$6,$7,$8,$9,0*
20,1,$1+$1,$8,$9,$2,$3,0*%
%AMFreePoly0*
4,1,17,0.404157,0.924921,0.924921,0.404157,0.939800,0.368236,0.939800,-0.368236,0.924921,-0.404157,0.404157,-0.924921,0.368236,-0.939800,-0.368236,-0.939800,-0.404157,-0.924921,-0.924921,-0.404157,-0.939800,-0.368236,-0.939800,0.368236,-0.924921,0.404157,-0.404157,0.924921,-0.368236,0.939800,0.368236,0.939800,0.404157,0.924921,0.404157,0.924921,$1*%
%AMFreePoly1*
4,1,17,0.367333,0.836021,0.836021,0.367333,0.850900,0.331412,0.850900,-0.331412,0.836021,-0.367333,0.367333,-0.836021,0.331412,-0.850900,-0.331412,-0.850900,-0.367333,-0.836021,-0.836021,-0.367333,-0.850900,-0.331412,-0.850900,0.331412,-0.836021,0.367333,-0.367333,0.836021,-0.331412,0.850900,0.331412,0.850900,0.367333,0.836021,0.367333,0.836021,$1*%
G04 Aperture macros list end*
%ADD10C,0.024384*%
%ADD11O,1.625600X3.149600*%
%ADD12C,2.641600*%
%ADD13RoundRect,0.050800X-0.650000X-0.800000X0.650000X-0.800000X0.650000X0.800000X-0.650000X0.800000X0*%
%ADD14RoundRect,0.050800X-0.800000X0.650000X-0.800000X-0.650000X0.800000X-0.650000X0.800000X0.650000X0*%
%ADD15RoundRect,0.050800X-0.650000X-0.750000X0.650000X-0.750000X0.650000X0.750000X-0.650000X0.750000X0*%
%ADD16RoundRect,0.050800X0.800000X0.900000X-0.800000X0.900000X-0.800000X-0.900000X0.800000X-0.900000X0*%
%ADD17RoundRect,0.050800X0.650000X0.750000X-0.650000X0.750000X-0.650000X-0.750000X0.650000X-0.750000X0*%
%ADD18RoundRect,0.050800X0.750000X-0.650000X0.750000X0.650000X-0.750000X0.650000X-0.750000X-0.650000X0*%
%ADD19RoundRect,0.050800X-0.750000X0.650000X-0.750000X-0.650000X0.750000X-0.650000X0.750000X0.650000X0*%
%ADD20RoundRect,0.050800X-1.900000X-1.000000X1.900000X-1.000000X1.900000X1.000000X-1.900000X1.000000X0*%
%ADD21RoundRect,0.050800X-0.750000X-1.000000X0.750000X-1.000000X0.750000X1.000000X-0.750000X1.000000X0*%
%ADD22RoundRect,0.050800X1.000000X-1.900000X1.000000X1.900000X-1.000000X1.900000X-1.000000X-1.900000X0*%
%ADD23RoundRect,0.050800X1.000000X-0.750000X1.000000X0.750000X-1.000000X0.750000X-1.000000X-0.750000X0*%
%ADD24RoundRect,0.050800X-0.750000X0.975000X-0.750000X-0.975000X0.750000X-0.975000X0.750000X0.975000X0*%
%ADD25RoundRect,0.050800X0.975000X0.750000X-0.975000X0.750000X-0.975000X-0.750000X0.975000X-0.750000X0*%
%ADD26RoundRect,0.050800X0.800000X1.350000X-0.800000X1.350000X-0.800000X-1.350000X0.800000X-1.350000X0*%
%ADD27O,2.286000X4.470400*%
%ADD28O,4.470400X2.286000*%
%ADD29FreePoly0,270.000000*%
%ADD30C,3.556000*%
%ADD31C,1.625600*%
%ADD32RoundRect,0.050800X-0.762000X0.762000X-0.762000X-0.762000X0.762000X-0.762000X0.762000X0.762000X0*%
%ADD33C,2.260600*%
%ADD34RoundRect,0.050800X-0.975000X-0.750000X0.975000X-0.750000X0.975000X0.750000X-0.975000X0.750000X0*%
%ADD35RoundRect,0.050800X-0.300000X-1.100000X0.300000X-1.100000X0.300000X1.100000X-0.300000X1.100000X0*%
%ADD36RoundRect,0.050800X0.550000X-0.500000X0.550000X0.500000X-0.550000X0.500000X-0.550000X-0.500000X0*%
%ADD37FreePoly1,0.000000*%
%ADD38RoundRect,0.050800X-2.032000X0.762000X-2.032000X-0.762000X2.032000X-0.762000X2.032000X0.762000X0*%
%ADD39C,1.422400*%
%ADD40RoundRect,0.050800X-0.660400X0.660400X-0.660400X-0.660400X0.660400X-0.660400X0.660400X0.660400X0*%
%ADD41RoundRect,0.050800X0.508000X0.508000X-0.508000X0.508000X-0.508000X-0.508000X0.508000X-0.508000X0*%
%ADD42RoundRect,0.247650X-0.247650X0.374650X-0.247650X-0.374650X0.247650X-0.374650X0.247650X0.374650X0*%
%ADD43RoundRect,0.050800X0.508000X-0.508000X0.508000X0.508000X-0.508000X0.508000X-0.508000X-0.508000X0*%
%ADD44RoundRect,0.050800X-0.900000X0.400000X-0.900000X-0.400000X0.900000X-0.400000X0.900000X0.400000X0*%
%ADD45RoundRect,0.050800X0.500000X0.475000X-0.500000X0.475000X-0.500000X-0.475000X0.500000X-0.475000X0*%
%ADD46RoundRect,0.050800X0.450000X-0.350000X0.450000X0.350000X-0.450000X0.350000X-0.450000X-0.350000X0*%
%ADD47RoundRect,0.050800X-0.508000X0.508000X-0.508000X-0.508000X0.508000X-0.508000X0.508000X0.508000X0*%
%ADD48RoundRect,0.050800X-0.350000X-0.450000X0.350000X-0.450000X0.350000X0.450000X-0.350000X0.450000X0*%
%ADD49RoundRect,0.050800X-0.550000X0.500000X-0.550000X-0.500000X0.550000X-0.500000X0.550000X0.500000X0*%
G04 APERTURE END LIST*
D10*
X189601349Y-94182201D02*
X189881765Y-94369145D01*
X189601349Y-94369145D02*
X189881765Y-94182201D01*
X189694821Y-94596149D02*
X189881765Y-94596149D01*
X189587996Y-94529383D02*
X189788293Y-94462617D01*
X189788293Y-94462617D02*
X189788293Y-94636208D01*
D11*
%TO.C,SV1*%
X163112350Y-84601100D03*
X160572350Y-84601100D03*
X158032350Y-84601100D03*
X155492350Y-84601100D03*
X152952350Y-84601100D03*
X150412350Y-84601100D03*
%TD*%
D12*
%TO.C,X1*%
X194068600Y-124923600D03*
X191528600Y-122383600D03*
X191528600Y-127463600D03*
X196608600Y-127463600D03*
X196608600Y-122383600D03*
%TD*%
D13*
%TO.C,R2*%
X137551100Y-106349850D03*
X135651100Y-106349850D03*
%TD*%
D14*
%TO.C,R3*%
X179146100Y-93806100D03*
X179146100Y-91906100D03*
%TD*%
D15*
%TO.C,C1*%
X118659850Y-112541100D03*
X116759850Y-112541100D03*
%TD*%
%TO.C,C2*%
X118659850Y-119208600D03*
X116759850Y-119208600D03*
%TD*%
D16*
%TO.C,C3*%
X110912350Y-123336100D03*
X113712350Y-123336100D03*
%TD*%
D15*
%TO.C,R4*%
X118659850Y-114763600D03*
X116759850Y-114763600D03*
%TD*%
%TO.C,R5*%
X118659850Y-116986100D03*
X116759850Y-116986100D03*
%TD*%
%TO.C,C4*%
X109769850Y-116986100D03*
X107869850Y-116986100D03*
%TD*%
D17*
%TO.C,R6*%
X107869850Y-111271100D03*
X109769850Y-111271100D03*
%TD*%
%TO.C,R7*%
X110727350Y-109048600D03*
X112627350Y-109048600D03*
%TD*%
D15*
%TO.C,R8*%
X109769850Y-113176100D03*
X107869850Y-113176100D03*
%TD*%
%TO.C,C5*%
X109769850Y-115081100D03*
X107869850Y-115081100D03*
%TD*%
D17*
%TO.C,C7*%
X122474850Y-106032350D03*
X124374850Y-106032350D03*
%TD*%
%TO.C,C8*%
X116124850Y-101428600D03*
X118024850Y-101428600D03*
%TD*%
%TO.C,R11*%
X100567350Y-115716100D03*
X102467350Y-115716100D03*
%TD*%
%TO.C,R12*%
X100567350Y-113493600D03*
X102467350Y-113493600D03*
%TD*%
%TO.C,C13*%
X187562350Y-104286100D03*
X189462350Y-104286100D03*
%TD*%
D18*
%TO.C,C18*%
X183749850Y-104764850D03*
X183749850Y-106664850D03*
%TD*%
D19*
%TO.C,C20*%
X173589850Y-111903600D03*
X173589850Y-110003600D03*
%TD*%
D18*
%TO.C,C22*%
X168192350Y-87778600D03*
X168192350Y-89678600D03*
%TD*%
%TO.C,C23*%
X175812350Y-85238600D03*
X175812350Y-87138600D03*
%TD*%
D15*
%TO.C,C27*%
X126597350Y-107778600D03*
X124697350Y-107778600D03*
%TD*%
D19*
%TO.C,C28*%
X113741100Y-92536100D03*
X113741100Y-90636100D03*
%TD*%
%TO.C,C29*%
X149142350Y-115396100D03*
X149142350Y-113496100D03*
%TD*%
D18*
%TO.C,C30*%
X130409850Y-85079850D03*
X130409850Y-86979850D03*
%TD*%
D19*
%TO.C,C31*%
X111518600Y-91424850D03*
X111518600Y-89524850D03*
%TD*%
D20*
%TO.C,IC5*%
X190417350Y-90926100D03*
D21*
X192717350Y-84626100D03*
X190417350Y-84626100D03*
X188117350Y-84626100D03*
%TD*%
D17*
%TO.C,C33*%
X184546100Y-94443600D03*
X186446100Y-94443600D03*
%TD*%
%TO.C,C34*%
X180736100Y-89681100D03*
X182636100Y-89681100D03*
%TD*%
D22*
%TO.C,IC6*%
X139116100Y-89363600D03*
D23*
X132816100Y-87063600D03*
X132816100Y-89363600D03*
X132816100Y-91663600D03*
%TD*%
D17*
%TO.C,R10*%
X141524850Y-88887350D03*
X143424850Y-88887350D03*
%TD*%
D24*
%TO.C,C36*%
X141363600Y-84337350D03*
X141363600Y-87087350D03*
%TD*%
D25*
%TO.C,C37*%
X155121100Y-109048600D03*
X152371100Y-109048600D03*
%TD*%
D19*
%TO.C,C38*%
X163112350Y-99203600D03*
X163112350Y-97303600D03*
%TD*%
%TO.C,C39*%
X151523600Y-90313600D03*
X151523600Y-88413600D03*
%TD*%
%TO.C,C40*%
X150094850Y-110951100D03*
X150094850Y-109051100D03*
%TD*%
%TO.C,R15*%
X188512350Y-102299225D03*
X188512350Y-100399225D03*
%TD*%
%TO.C,C10*%
X135648600Y-104759850D03*
X135648600Y-102859850D03*
%TD*%
D18*
%TO.C,C49*%
X177399850Y-118576100D03*
X177399850Y-120476100D03*
%TD*%
%TO.C,C50*%
X145491100Y-84127350D03*
X145491100Y-86027350D03*
%TD*%
%TO.C,C51*%
X176606100Y-89207350D03*
X176606100Y-91107350D03*
%TD*%
D15*
%TO.C,C52*%
X171206100Y-93491100D03*
X169306100Y-93491100D03*
%TD*%
D19*
%TO.C,C53*%
X179304850Y-107776100D03*
X179304850Y-105876100D03*
%TD*%
D18*
%TO.C,C19*%
X181686100Y-99684850D03*
X181686100Y-101584850D03*
%TD*%
D26*
%TO.C,R20*%
X165046100Y-97777350D03*
X167846100Y-97777350D03*
%TD*%
D18*
%TO.C,C54*%
X164541100Y-89842350D03*
X164541100Y-91742350D03*
%TD*%
%TO.C,C55*%
X164858600Y-109209850D03*
X164858600Y-111109850D03*
%TD*%
D13*
%TO.C,R19*%
X177238600Y-93649850D03*
X175338600Y-93649850D03*
%TD*%
D18*
%TO.C,C56*%
X127234850Y-118893600D03*
X127234850Y-120793600D03*
%TD*%
D15*
%TO.C,C58*%
X110404850Y-104762350D03*
X108504850Y-104762350D03*
%TD*%
D27*
%TO.C,J2*%
X108962350Y-89839850D03*
X102962350Y-89839850D03*
D28*
X105962350Y-94639850D03*
%TD*%
D12*
%TO.C,S1*%
X103714450Y-104140050D03*
X103714450Y-97129650D03*
D29*
X101225250Y-102895450D03*
X101225250Y-98374250D03*
%TD*%
D30*
%TO.C,RJ2*%
X105168600Y-121589850D03*
X105168600Y-110159850D03*
D31*
X100215600Y-119938850D03*
X100215600Y-122478850D03*
X114058600Y-112699850D03*
D32*
X111518600Y-111429850D03*
D33*
X108089600Y-107873850D03*
X108089600Y-123875850D03*
D31*
X114058600Y-117779850D03*
X111518600Y-113969850D03*
X111518600Y-116509850D03*
X114058600Y-115239850D03*
X111518600Y-119049850D03*
X114058600Y-120319850D03*
X100215600Y-111810850D03*
X100215600Y-109270850D03*
%TD*%
D34*
%TO.C,C59*%
X183644850Y-101428600D03*
X186394850Y-101428600D03*
%TD*%
D35*
%TO.C,IC8*%
X146602350Y-97678600D03*
X145332350Y-97678600D03*
X142792350Y-97678600D03*
X146602350Y-92478600D03*
X145332350Y-92478600D03*
X142792350Y-92478600D03*
X144062350Y-97678600D03*
X144062350Y-92478600D03*
%TD*%
D36*
%TO.C,R23*%
X147713600Y-83274850D03*
X147713600Y-84974850D03*
%TD*%
D35*
%TO.C,IC9*%
X146602350Y-105616100D03*
X145332350Y-105616100D03*
X142792350Y-105616100D03*
X146602350Y-100416100D03*
X145332350Y-100416100D03*
X142792350Y-100416100D03*
X144062350Y-105616100D03*
X144062350Y-100416100D03*
%TD*%
D17*
%TO.C,C41*%
X134857350Y-99999850D03*
X136757350Y-99999850D03*
%TD*%
D37*
%TO.C,P1*%
X177399850Y-117621100D03*
%TD*%
%TO.C,P2*%
X127393600Y-91744850D03*
%TD*%
%TO.C,P3*%
X127552350Y-82219850D03*
%TD*%
%TO.C,P4*%
X111518600Y-82219850D03*
%TD*%
%TO.C,P5*%
X111518600Y-91903600D03*
%TD*%
%TO.C,P6*%
X161207350Y-127146100D03*
%TD*%
%TO.C,P7*%
X161366100Y-117779850D03*
%TD*%
%TO.C,P8*%
X177241100Y-127304850D03*
%TD*%
D38*
%TO.C,X3*%
X196164100Y-94126100D03*
X196164100Y-99206100D03*
%TD*%
D39*
%TO.C,LED3*%
X196132350Y-92538600D03*
D40*
X196132350Y-89998600D03*
%TD*%
D39*
%TO.C,LED1*%
X196132350Y-88252350D03*
D40*
X196132350Y-85712350D03*
%TD*%
D41*
%TO.C,C75*%
X186766100Y-97459850D03*
X188671100Y-97459850D03*
%TD*%
D42*
%TO.C,X4*%
X190798350Y-96031100D03*
X190798350Y-93491100D03*
X188766350Y-96031100D03*
X188766350Y-93491100D03*
%TD*%
D43*
%TO.C,C78*%
X190099850Y-97459850D03*
X190099850Y-99364850D03*
%TD*%
D44*
%TO.C,U$1*%
X160304850Y-94323600D03*
X160304850Y-98723600D03*
X160304850Y-101723600D03*
X160304850Y-102823600D03*
X160304850Y-103923600D03*
X160304850Y-105023600D03*
X160304850Y-106123600D03*
X148304850Y-92123600D03*
X148304850Y-93223600D03*
X148304850Y-94323600D03*
X148304850Y-95423600D03*
X148304850Y-96523600D03*
X148304850Y-106123600D03*
%TD*%
D45*
%TO.C,L2*%
X162794850Y-106673600D03*
X162794850Y-105073600D03*
%TD*%
D46*
%TO.C,R39*%
X162794850Y-103318600D03*
X162794850Y-104618600D03*
%TD*%
D47*
%TO.C,C79*%
X162794850Y-102698600D03*
X162794850Y-100793600D03*
%TD*%
D46*
%TO.C,R40*%
X170732350Y-89824850D03*
X170732350Y-91124850D03*
%TD*%
D48*
%TO.C,R22*%
X147411100Y-88728600D03*
X146111100Y-88728600D03*
%TD*%
D39*
%TO.C,LED4*%
X196449850Y-106508600D03*
D40*
X196449850Y-103968600D03*
%TD*%
D49*
%TO.C,R41*%
X192401725Y-94579225D03*
X192401725Y-92879225D03*
%TD*%
G36*
X180200389Y-95733285D02*
G01*
X180246144Y-95786089D01*
X180257350Y-95837600D01*
X180257350Y-100669600D01*
X180237665Y-100736639D01*
X180184861Y-100782394D01*
X180133350Y-100793600D01*
X175301350Y-100793600D01*
X175234311Y-100773915D01*
X175188556Y-100721111D01*
X175177350Y-100669600D01*
X175177350Y-95837600D01*
X175197035Y-95770561D01*
X175249839Y-95724806D01*
X175301350Y-95713600D01*
X180133350Y-95713600D01*
X180200389Y-95733285D01*
G37*
G36*
X198344139Y-80123285D02*
G01*
X198389894Y-80176089D01*
X198401100Y-80227600D01*
X198401100Y-81629600D01*
X198381415Y-81696639D01*
X198328611Y-81742394D01*
X198277100Y-81753600D01*
X98725100Y-81753600D01*
X98658061Y-81733915D01*
X98612306Y-81681111D01*
X98601100Y-81629600D01*
X98601100Y-80227600D01*
X98620785Y-80160561D01*
X98673589Y-80114806D01*
X98725100Y-80103600D01*
X198277100Y-80103600D01*
X198344139Y-80123285D01*
G37*
G36*
X198344139Y-128023285D02*
G01*
X198389894Y-128076089D01*
X198401100Y-128127600D01*
X198401100Y-129779600D01*
X198381415Y-129846639D01*
X198328611Y-129892394D01*
X198277100Y-129903600D01*
X98725100Y-129903600D01*
X98658061Y-129883915D01*
X98612306Y-129831111D01*
X98601100Y-129779600D01*
X98601100Y-128127600D01*
X98620785Y-128060561D01*
X98673589Y-128014806D01*
X98725100Y-128003600D01*
X198277100Y-128003600D01*
X198344139Y-128023285D01*
G37*
G36*
X193931830Y-95907858D02*
G01*
X193991330Y-95919693D01*
X194036028Y-95938207D01*
X194076116Y-95964992D01*
X194110329Y-95999204D01*
X194127077Y-96024269D01*
X194147955Y-96090946D01*
X194147975Y-96093160D01*
X194147975Y-97217788D01*
X194128290Y-97284827D01*
X194127076Y-97286680D01*
X194110327Y-97311746D01*
X194076116Y-97345957D01*
X194036029Y-97372742D01*
X193991332Y-97391256D01*
X193931832Y-97403092D01*
X193907639Y-97405475D01*
X193232061Y-97405475D01*
X193207869Y-97403092D01*
X193148368Y-97391256D01*
X193103670Y-97372742D01*
X193063581Y-97345956D01*
X193029368Y-97311743D01*
X193002582Y-97271654D01*
X192984068Y-97226955D01*
X192972233Y-97167455D01*
X192969850Y-97143264D01*
X192969850Y-96167685D01*
X192972233Y-96143494D01*
X192984068Y-96083994D01*
X193002582Y-96039295D01*
X193029368Y-95999206D01*
X193063581Y-95964993D01*
X193103670Y-95938207D01*
X193148370Y-95919692D01*
X193207871Y-95907857D01*
X193232061Y-95905475D01*
X193907639Y-95905475D01*
X193931830Y-95907858D01*
G37*
G36*
X194091014Y-95733285D02*
G01*
X194136769Y-95786089D01*
X194147975Y-95837600D01*
X194147975Y-97494600D01*
X194128290Y-97561639D01*
X194075486Y-97607394D01*
X194023975Y-97618600D01*
X193001975Y-97618600D01*
X192934936Y-97598915D01*
X192889181Y-97546111D01*
X192877975Y-97494600D01*
X192877975Y-95837600D01*
X192897660Y-95770561D01*
X192950464Y-95724806D01*
X193001975Y-95713600D01*
X194023975Y-95713600D01*
X194091014Y-95733285D01*
G37*
G36*
X163622889Y-107401410D02*
G01*
X163668644Y-107454214D01*
X163679850Y-107505725D01*
X163679850Y-108845225D01*
X163660165Y-108912264D01*
X163607361Y-108958019D01*
X163555850Y-108969225D01*
X163429850Y-108969225D01*
X163429850Y-109242100D01*
X163410165Y-109309139D01*
X163357361Y-109354894D01*
X163305850Y-109366100D01*
X161966350Y-109366100D01*
X161899311Y-109346415D01*
X161853556Y-109293611D01*
X161842350Y-109242100D01*
X161842350Y-107505725D01*
X161862035Y-107438686D01*
X161914839Y-107392931D01*
X161966350Y-107381725D01*
X163555850Y-107381725D01*
X163622889Y-107401410D01*
G37*
G36*
X163940389Y-107401410D02*
G01*
X163986144Y-107454214D01*
X163997350Y-107505725D01*
X163997350Y-108130850D01*
X163977665Y-108197889D01*
X163924861Y-108243644D01*
X163873350Y-108254850D01*
X163747350Y-108254850D01*
X163747350Y-108845225D01*
X163727665Y-108912264D01*
X163674861Y-108958019D01*
X163623350Y-108969225D01*
X163429850Y-108969225D01*
X163428953Y-108970121D01*
X163410165Y-109034107D01*
X163357361Y-109079862D01*
X163288203Y-109089806D01*
X163224647Y-109060781D01*
X163186873Y-109002003D01*
X163184233Y-108991261D01*
X163182233Y-108981207D01*
X163179850Y-108957014D01*
X163179850Y-107505725D01*
X163199535Y-107438686D01*
X163252339Y-107392931D01*
X163303850Y-107381725D01*
X163873350Y-107381725D01*
X163940389Y-107401410D01*
G37*
G36*
X164246014Y-107401410D02*
G01*
X164291769Y-107454214D01*
X164302975Y-107505725D01*
X164302975Y-108130850D01*
X164283290Y-108197889D01*
X164230486Y-108243644D01*
X164178975Y-108254850D01*
X163747350Y-108254850D01*
X163747350Y-108380850D01*
X163727665Y-108447889D01*
X163674861Y-108493644D01*
X163623350Y-108504850D01*
X163442061Y-108504850D01*
X163417869Y-108502467D01*
X163358368Y-108490631D01*
X163313670Y-108472117D01*
X163273581Y-108445331D01*
X163239368Y-108411118D01*
X163212582Y-108371029D01*
X163194068Y-108326330D01*
X163182233Y-108266830D01*
X163179850Y-108242639D01*
X163179850Y-107505725D01*
X163199535Y-107438686D01*
X163252339Y-107392931D01*
X163303850Y-107381725D01*
X164178975Y-107381725D01*
X164246014Y-107401410D01*
G37*
M02*
