%TF.GenerationSoftware,KiCad,Pcbnew,9.0.7*%
%TF.CreationDate,2026-01-09T15:07:01-08:00*%
%TF.ProjectId,W5500_LX9_AD9957_sramv2_gps,57353530-305f-44c5-9839-5f4144393935,rev?*%
%TF.SameCoordinates,Original*%
%TF.FileFunction,Soldermask,Top*%
%TF.FilePolarity,Negative*%
%FSLAX46Y46*%
G04 Gerber Fmt 4.6, Leading zero omitted, Abs format (unit mm)*
G04 Created by KiCad (PCBNEW 9.0.7) date 2026-01-09 15:07:01*
%MOMM*%
%LPD*%
G01*
G04 APERTURE LIST*
G04 Aperture macros list*
%AMRoundRect*
0 Rectangle with rounded corners*
0 $1 Rounding radius*
0 $2 $3 $4 $5 $6 $7 $8 $9 X,Y pos of 4 corners*
0 Add a 4 corners polygon primitive as box body*
4,1,4,$2,$3,$4,$5,$6,$7,$8,$9,$2,$3,0*
0 Add four circle primitives for the rounded corners*
1,1,$1+$1,$2,$3*
1,1,$1+$1,$4,$5*
1,1,$1+$1,$6,$7*
1,1,$1+$1,$8,$9*
0 Add four rect primitives between the rounded corners*
20,1,$1+$1,$2,$3,$4,$5,0*
20,1,$1+$1,$4,$5,$6,$7,0*
20,1,$1+$1,$6,$7,$8,$9,0*
20,1,$1+$1,$8,$9,$2,$3,0*%
%AMFreePoly0*
4,1,17,0.404157,0.924921,0.924921,0.404157,0.939800,0.368236,0.939800,-0.368236,0.924921,-0.404157,0.404157,-0.924921,0.368236,-0.939800,-0.368236,-0.939800,-0.404157,-0.924921,-0.924921,-0.404157,-0.939800,-0.368236,-0.939800,0.368236,-0.924921,0.404157,-0.404157,0.924921,-0.368236,0.939800,0.368236,0.939800,0.404157,0.924921,0.404157,0.924921,$1*%
%AMFreePoly1*
4,1,17,0.367333,0.836021,0.836021,0.367333,0.850900,0.331412,0.850900,-0.331412,0.836021,-0.367333,0.367333,-0.836021,0.331412,-0.850900,-0.331412,-0.850900,-0.367333,-0.836021,-0.836021,-0.367333,-0.850900,-0.331412,-0.850900,0.331412,-0.836021,0.367333,-0.367333,0.836021,-0.331412,0.850900,0.331412,0.850900,0.367333,0.836021,0.367333,0.836021,$1*%
G04 Aperture macros list end*
%ADD10C,0.025400*%
%ADD11C,0.000000*%
%ADD12RoundRect,0.050800X-0.150000X0.750000X-0.150000X-0.750000X0.150000X-0.750000X0.150000X0.750000X0*%
%ADD13RoundRect,0.050800X0.750000X0.150000X-0.750000X0.150000X-0.750000X-0.150000X0.750000X-0.150000X0*%
%ADD14RoundRect,0.050800X0.150000X-0.750000X0.150000X0.750000X-0.150000X0.750000X-0.150000X-0.750000X0*%
%ADD15RoundRect,0.050800X-0.750000X-0.150000X0.750000X-0.150000X0.750000X0.150000X-0.750000X0.150000X0*%
%ADD16RoundRect,0.050800X0.150000X-0.800000X0.150000X0.800000X-0.150000X0.800000X-0.150000X-0.800000X0*%
%ADD17RoundRect,0.050800X-0.800000X-0.150000X0.800000X-0.150000X0.800000X0.150000X-0.800000X0.150000X0*%
%ADD18RoundRect,0.050800X-2.501900X2.501900X-2.501900X-2.501900X2.501900X-2.501900X2.501900X2.501900X0*%
%ADD19RoundRect,0.050800X0.736600X-0.139700X0.736600X0.139700X-0.736600X0.139700X-0.736600X-0.139700X0*%
%ADD20RoundRect,0.050800X0.139700X0.736600X-0.139700X0.736600X-0.139700X-0.736600X0.139700X-0.736600X0*%
%ADD21O,1.625600X3.149600*%
%ADD22RoundRect,0.050800X0.800000X-0.650000X0.800000X0.650000X-0.800000X0.650000X-0.800000X-0.650000X0*%
%ADD23C,2.641600*%
%ADD24RoundRect,0.050800X1.100000X-0.300000X1.100000X0.300000X-1.100000X0.300000X-1.100000X-0.300000X0*%
%ADD25RoundRect,0.050800X0.750000X-0.650000X0.750000X0.650000X-0.750000X0.650000X-0.750000X-0.650000X0*%
%ADD26RoundRect,0.050800X-0.650000X-0.750000X0.650000X-0.750000X0.650000X0.750000X-0.650000X0.750000X0*%
%ADD27RoundRect,0.050800X0.650000X0.750000X-0.650000X0.750000X-0.650000X-0.750000X0.650000X-0.750000X0*%
%ADD28RoundRect,0.050800X0.600000X0.700000X-0.600000X0.700000X-0.600000X-0.700000X0.600000X-0.700000X0*%
%ADD29RoundRect,0.050800X-0.975000X-0.750000X0.975000X-0.750000X0.975000X0.750000X-0.975000X0.750000X0*%
%ADD30RoundRect,0.050800X-0.750000X0.975000X-0.750000X-0.975000X0.750000X-0.975000X0.750000X0.975000X0*%
%ADD31RoundRect,0.050800X0.750000X-0.975000X0.750000X0.975000X-0.750000X0.975000X-0.750000X-0.975000X0*%
%ADD32RoundRect,0.050800X0.975000X0.750000X-0.975000X0.750000X-0.975000X-0.750000X0.975000X-0.750000X0*%
%ADD33RoundRect,0.050800X-0.750000X0.650000X-0.750000X-0.650000X0.750000X-0.650000X0.750000X0.650000X0*%
%ADD34RoundRect,0.050800X0.508000X-0.889000X0.508000X0.889000X-0.508000X0.889000X-0.508000X-0.889000X0*%
%ADD35RoundRect,0.050800X0.889000X0.508000X-0.889000X0.508000X-0.889000X-0.508000X0.889000X-0.508000X0*%
%ADD36RoundRect,1.150800X0.000010X0.750000X-0.000010X0.750000X-0.000010X-0.750000X0.000010X-0.750000X0*%
%ADD37RoundRect,0.050800X-0.750000X-0.750000X0.750000X-0.750000X0.750000X0.750000X-0.750000X0.750000X0*%
%ADD38RoundRect,0.050800X0.380000X1.025000X-0.380000X1.025000X-0.380000X-1.025000X0.380000X-1.025000X0*%
%ADD39RoundRect,0.050800X-0.380000X-1.025000X0.380000X-1.025000X0.380000X1.025000X-0.380000X1.025000X0*%
%ADD40O,2.286000X4.470400*%
%ADD41O,4.470400X2.286000*%
%ADD42FreePoly0,270.000000*%
%ADD43C,3.556000*%
%ADD44C,1.625600*%
%ADD45RoundRect,0.050800X-0.762000X0.762000X-0.762000X-0.762000X0.762000X-0.762000X0.762000X0.762000X0*%
%ADD46C,2.260600*%
%ADD47RoundRect,0.050800X-0.600000X-0.800000X0.600000X-0.800000X0.600000X0.800000X-0.600000X0.800000X0*%
%ADD48RoundRect,0.050800X0.800000X-0.600000X0.800000X0.600000X-0.800000X0.600000X-0.800000X-0.600000X0*%
%ADD49RoundRect,0.050800X0.825500X0.381000X-0.825500X0.381000X-0.825500X-0.381000X0.825500X-0.381000X0*%
%ADD50RoundRect,0.050800X-0.550000X0.500000X-0.550000X-0.500000X0.550000X-0.500000X0.550000X0.500000X0*%
%ADD51RoundRect,0.685800X-0.000010X-0.000010X0.000010X-0.000010X0.000010X0.000010X-0.000010X0.000010X0*%
%ADD52RoundRect,0.050800X0.500000X0.475000X-0.500000X0.475000X-0.500000X-0.475000X0.500000X-0.475000X0*%
%ADD53RoundRect,0.050800X-0.508000X-0.508000X0.508000X-0.508000X0.508000X0.508000X-0.508000X0.508000X0*%
%ADD54RoundRect,0.050800X0.300000X1.100000X-0.300000X1.100000X-0.300000X-1.100000X0.300000X-1.100000X0*%
%ADD55RoundRect,0.050800X0.508000X0.508000X-0.508000X0.508000X-0.508000X-0.508000X0.508000X-0.508000X0*%
%ADD56RoundRect,0.050800X-0.500000X-0.550000X0.500000X-0.550000X0.500000X0.550000X-0.500000X0.550000X0*%
%ADD57RoundRect,0.050800X0.900000X-0.800000X0.900000X0.800000X-0.900000X0.800000X-0.900000X-0.800000X0*%
%ADD58RoundRect,0.050800X-0.508000X0.508000X-0.508000X-0.508000X0.508000X-0.508000X0.508000X0.508000X0*%
%ADD59RoundRect,0.050800X0.500000X0.550000X-0.500000X0.550000X-0.500000X-0.550000X0.500000X-0.550000X0*%
%ADD60RoundRect,0.050800X-1.625000X1.250000X-1.625000X-1.250000X1.625000X-1.250000X1.625000X1.250000X0*%
%ADD61RoundRect,0.050800X-0.300000X-1.100000X0.300000X-1.100000X0.300000X1.100000X-0.300000X1.100000X0*%
%ADD62RoundRect,0.050800X-0.900000X0.800000X-0.900000X-0.800000X0.900000X-0.800000X0.900000X0.800000X0*%
%ADD63RoundRect,0.050800X0.508000X-0.508000X0.508000X0.508000X-0.508000X0.508000X-0.508000X-0.508000X0*%
%ADD64RoundRect,0.050800X1.625000X-1.250000X1.625000X1.250000X-1.625000X1.250000X-1.625000X-1.250000X0*%
%ADD65RoundRect,0.050800X0.550000X-0.500000X0.550000X0.500000X-0.550000X0.500000X-0.550000X-0.500000X0*%
%ADD66FreePoly1,0.000000*%
%ADD67RoundRect,0.050800X-1.900000X-1.000000X1.900000X-1.000000X1.900000X1.000000X-1.900000X1.000000X0*%
%ADD68RoundRect,0.050800X-0.750000X-1.000000X0.750000X-1.000000X0.750000X1.000000X-0.750000X1.000000X0*%
%ADD69RoundRect,0.050800X-0.450000X0.350000X-0.450000X-0.350000X0.450000X-0.350000X0.450000X0.350000X0*%
%ADD70RoundRect,0.050800X0.450000X-0.350000X0.450000X0.350000X-0.450000X0.350000X-0.450000X-0.350000X0*%
%ADD71RoundRect,0.050800X-1.016000X0.508000X-1.016000X-0.508000X1.016000X-0.508000X1.016000X0.508000X0*%
%ADD72RoundRect,0.050800X-2.032000X0.762000X-2.032000X-0.762000X2.032000X-0.762000X2.032000X0.762000X0*%
%ADD73C,1.422400*%
%ADD74RoundRect,0.050800X-0.660400X0.660400X-0.660400X-0.660400X0.660400X-0.660400X0.660400X0.660400X0*%
%ADD75RoundRect,0.050800X-1.587500X1.270000X-1.587500X-1.270000X1.587500X-1.270000X1.587500X1.270000X0*%
%ADD76RoundRect,0.050800X1.524000X-1.270000X1.524000X1.270000X-1.524000X1.270000X-1.524000X-1.270000X0*%
%ADD77RoundRect,0.050800X0.635000X-0.635000X0.635000X0.635000X-0.635000X0.635000X-0.635000X-0.635000X0*%
%ADD78RoundRect,0.050800X-0.635000X0.635000X-0.635000X-0.635000X0.635000X-0.635000X0.635000X0.635000X0*%
%ADD79RoundRect,0.275400X0.275400X-0.300400X0.275400X0.300400X-0.275400X0.300400X-0.275400X-0.300400X0*%
%ADD80RoundRect,0.287900X-0.287900X0.862900X-0.287900X-0.862900X0.287900X-0.862900X0.287900X0.862900X0*%
%ADD81RoundRect,0.050800X0.300000X0.600000X-0.300000X0.600000X-0.300000X-0.600000X0.300000X-0.600000X0*%
G04 APERTURE END LIST*
D10*
X162982102Y-111144738D02*
X163090960Y-111144738D01*
X162960331Y-111210052D02*
X163036531Y-110981452D01*
X163036531Y-110981452D02*
X163112731Y-111210052D01*
X163188931Y-111210052D02*
X163188931Y-110981452D01*
X163188931Y-110981452D02*
X163319560Y-111210052D01*
X163319560Y-111210052D02*
X163319560Y-110981452D01*
X163395760Y-110981452D02*
X163526389Y-110981452D01*
X163461074Y-111210052D02*
X163461074Y-110981452D01*
X163722331Y-111210052D02*
X163591702Y-111210052D01*
X163657017Y-111210052D02*
X163657017Y-110981452D01*
X163657017Y-110981452D02*
X163635245Y-111014109D01*
X163635245Y-111014109D02*
X163613474Y-111035881D01*
X163613474Y-111035881D02*
X163591702Y-111046767D01*
D11*
%TO.C,IC7*%
G36*
X187449850Y-119119850D02*
G01*
X186399850Y-119119850D01*
X186399850Y-117544850D01*
X187449850Y-117544850D01*
X187449850Y-119119850D01*
G37*
G36*
X185949850Y-119119850D02*
G01*
X184899850Y-119119850D01*
X184899850Y-117544850D01*
X185949850Y-117544850D01*
X185949850Y-119119850D01*
G37*
G36*
X188949850Y-119119850D02*
G01*
X187899850Y-119119850D01*
X187899850Y-117544850D01*
X188949850Y-117544850D01*
X188949850Y-119119850D01*
G37*
%TO.C,X3*%
G36*
X197307100Y-95727900D02*
G01*
X194970300Y-95727900D01*
X194970300Y-94813500D01*
X197307100Y-94813500D01*
X197307100Y-95727900D01*
G37*
G36*
X197307100Y-98518700D02*
G01*
X194970300Y-98518700D01*
X194970300Y-97604300D01*
X197307100Y-97604300D01*
X197307100Y-98518700D01*
G37*
%TD*%
D12*
%TO.C,U1*%
X118452350Y-94756100D03*
X118952350Y-94756100D03*
X119452350Y-94756100D03*
X119952350Y-94756100D03*
X120452350Y-94756100D03*
X120952350Y-94756100D03*
X121452350Y-94756100D03*
X121952350Y-94756100D03*
X122452350Y-94756100D03*
X122952350Y-94756100D03*
X123452350Y-94756100D03*
X123952350Y-94756100D03*
D13*
X125652350Y-96456100D03*
X125652350Y-96956100D03*
X125652350Y-97456100D03*
X125652350Y-97956100D03*
X125652350Y-98456100D03*
X125652350Y-98956100D03*
X125652350Y-99456100D03*
X125652350Y-99956100D03*
X125652350Y-100456100D03*
X125652350Y-100956100D03*
X125652350Y-101456100D03*
X125652350Y-101956100D03*
D14*
X123952350Y-103656100D03*
X123452350Y-103656100D03*
X122952350Y-103656100D03*
X122452350Y-103656100D03*
X121952350Y-103656100D03*
X121452350Y-103656100D03*
X120952350Y-103656100D03*
X120452350Y-103656100D03*
X119952350Y-103656100D03*
X119452350Y-103656100D03*
X118952350Y-103656100D03*
X118452350Y-103656100D03*
D15*
X116752350Y-101956100D03*
X116752350Y-101456100D03*
X116752350Y-100956100D03*
X116752350Y-100456100D03*
X116752350Y-99956100D03*
X116752350Y-99456100D03*
X116752350Y-98956100D03*
X116752350Y-98456100D03*
X116752350Y-97956100D03*
X116752350Y-97456100D03*
X116752350Y-96956100D03*
X116752350Y-96456100D03*
%TD*%
D16*
%TO.C,U2*%
X141027350Y-88423600D03*
X141527350Y-88423600D03*
X142027350Y-88423600D03*
X142527350Y-88423600D03*
X143027350Y-88423600D03*
X143527350Y-88423600D03*
X144027350Y-88423600D03*
X144527350Y-88423600D03*
X145027350Y-88423600D03*
X145527350Y-88423600D03*
X146027350Y-88423600D03*
X146527350Y-88423600D03*
X147027350Y-88423600D03*
X147527350Y-88423600D03*
X148027350Y-88423600D03*
X148527350Y-88423600D03*
X149027350Y-88423600D03*
X149527350Y-88423600D03*
X150027350Y-88423600D03*
X150527350Y-88423600D03*
X151027350Y-88423600D03*
X151527350Y-88423600D03*
X152027350Y-88423600D03*
X152527350Y-88423600D03*
X153027350Y-88423600D03*
X153527350Y-88423600D03*
X154027350Y-88423600D03*
X154527350Y-88423600D03*
X155027350Y-88423600D03*
X155527350Y-88423600D03*
X156027350Y-88423600D03*
X156527350Y-88423600D03*
X157027350Y-88423600D03*
X157527350Y-88423600D03*
X158027350Y-88423600D03*
X158527350Y-88423600D03*
D17*
X160877350Y-90773600D03*
X160877350Y-91273600D03*
X160877350Y-91773600D03*
X160877350Y-92273600D03*
X160877350Y-92773600D03*
X160877350Y-93273600D03*
X160877350Y-93773600D03*
X160877350Y-94273600D03*
X160877350Y-94773600D03*
X160877350Y-95273600D03*
X160877350Y-95773600D03*
X160877350Y-96273600D03*
X160877350Y-96773600D03*
X160877350Y-97273600D03*
X160877350Y-97773600D03*
X160877350Y-98273600D03*
X160877350Y-98773600D03*
X160877350Y-99273600D03*
X160877350Y-99773600D03*
X160877350Y-100273600D03*
X160877350Y-100773600D03*
X160877350Y-101273600D03*
X160877350Y-101773600D03*
X160877350Y-102273600D03*
X160877350Y-102773600D03*
X160877350Y-103273600D03*
X160877350Y-103773600D03*
X160877350Y-104273600D03*
X160877350Y-104773600D03*
X160877350Y-105273600D03*
X160877350Y-105773600D03*
X160877350Y-106273600D03*
X160877350Y-106773600D03*
X160877350Y-107273600D03*
X160877350Y-107773600D03*
X160877350Y-108273600D03*
D16*
X158527350Y-110623600D03*
X158027350Y-110623600D03*
X157527350Y-110623600D03*
X157027350Y-110623600D03*
X156527350Y-110623600D03*
X156027350Y-110623600D03*
X155527350Y-110623600D03*
X155027350Y-110623600D03*
X154527350Y-110623600D03*
X154027350Y-110623600D03*
X153527350Y-110623600D03*
X153027350Y-110623600D03*
X152527350Y-110623600D03*
X152027350Y-110623600D03*
X151527350Y-110623600D03*
X151027350Y-110623600D03*
X150527350Y-110623600D03*
X150027350Y-110623600D03*
X149527350Y-110623600D03*
X149027350Y-110623600D03*
X148527350Y-110623600D03*
X148027350Y-110623600D03*
X147527350Y-110623600D03*
X147027350Y-110623600D03*
X146527350Y-110623600D03*
X146027350Y-110623600D03*
X145527350Y-110623600D03*
X145027350Y-110623600D03*
X144527350Y-110623600D03*
X144027350Y-110623600D03*
X143527350Y-110623600D03*
X143027350Y-110623600D03*
X142527350Y-110623600D03*
X142027350Y-110623600D03*
X141527350Y-110623600D03*
X141027350Y-110623600D03*
D17*
X138677350Y-108273600D03*
X138677350Y-107773600D03*
X138677350Y-107273600D03*
X138677350Y-106773600D03*
X138677350Y-106273600D03*
X138677350Y-105773600D03*
X138677350Y-105273600D03*
X138677350Y-104773600D03*
X138677350Y-104273600D03*
X138677350Y-103773600D03*
X138677350Y-103273600D03*
X138677350Y-102773600D03*
X138677350Y-102273600D03*
X138677350Y-101773600D03*
X138677350Y-101273600D03*
X138677350Y-100773600D03*
X138677350Y-100273600D03*
X138677350Y-99773600D03*
X138677350Y-99273600D03*
X138677350Y-98773600D03*
X138677350Y-98273600D03*
X138677350Y-97773600D03*
X138677350Y-97273600D03*
X138677350Y-96773600D03*
X138677350Y-96273600D03*
X138677350Y-95773600D03*
X138677350Y-95273600D03*
X138677350Y-94773600D03*
X138677350Y-94273600D03*
X138677350Y-93773600D03*
X138677350Y-93273600D03*
X138677350Y-92773600D03*
X138677350Y-92273600D03*
X138677350Y-91773600D03*
X138677350Y-91273600D03*
X138677350Y-90773600D03*
%TD*%
D18*
%TO.C,U3*%
X177717350Y-98253600D03*
D19*
X185337350Y-92259200D03*
X185337350Y-92741800D03*
X185337350Y-93249800D03*
X185337350Y-93757800D03*
X185337350Y-94265800D03*
X185337350Y-94748400D03*
X185337350Y-95256400D03*
X185337350Y-95764400D03*
X185337350Y-96247000D03*
X185337350Y-96755000D03*
X185337350Y-97263000D03*
X185337350Y-97745600D03*
X185337350Y-98253600D03*
X185337350Y-98761600D03*
X185337350Y-99244200D03*
X185337350Y-99752200D03*
X185337350Y-100260200D03*
X185337350Y-100742800D03*
X185337350Y-101250800D03*
X185337350Y-101758800D03*
X185337350Y-102241400D03*
X185337350Y-102749400D03*
X185337350Y-103257400D03*
X185337350Y-103765400D03*
X185337350Y-104248000D03*
D20*
X183711750Y-105873600D03*
X183229150Y-105873600D03*
X182721150Y-105873600D03*
X182213150Y-105873600D03*
X181705150Y-105873600D03*
X181222550Y-105873600D03*
X180714550Y-105873600D03*
X180206550Y-105873600D03*
X179723950Y-105873600D03*
X179215950Y-105873600D03*
X178707950Y-105873600D03*
X178225350Y-105873600D03*
X177717350Y-105873600D03*
X177209350Y-105873600D03*
X176726750Y-105873600D03*
X176218750Y-105873600D03*
X175710750Y-105873600D03*
X175228150Y-105873600D03*
X174720150Y-105873600D03*
X174212150Y-105873600D03*
X173729550Y-105873600D03*
X173221550Y-105873600D03*
X172713550Y-105873600D03*
X172205550Y-105873600D03*
X171722950Y-105873600D03*
D19*
X170097350Y-104248000D03*
X170097350Y-103765400D03*
X170097350Y-103257400D03*
X170097350Y-102749400D03*
X170097350Y-102241400D03*
X170097350Y-101758800D03*
X170097350Y-101250800D03*
X170097350Y-100742800D03*
X170097350Y-100260200D03*
X170097350Y-99752200D03*
X170097350Y-99244200D03*
X170097350Y-98761600D03*
X170097350Y-98253600D03*
X170097350Y-97745600D03*
X170097350Y-97263000D03*
X170097350Y-96755000D03*
X170097350Y-96247000D03*
X170097350Y-95764400D03*
X170097350Y-95256400D03*
X170097350Y-94748400D03*
X170097350Y-94265800D03*
X170097350Y-93757800D03*
X170097350Y-93249800D03*
X170097350Y-92741800D03*
X170097350Y-92259200D03*
D20*
X171722950Y-90633600D03*
X172205550Y-90633600D03*
X172713550Y-90633600D03*
X173221550Y-90633600D03*
X173729550Y-90633600D03*
X174212150Y-90633600D03*
X174720150Y-90633600D03*
X175228150Y-90633600D03*
X175710750Y-90633600D03*
X176218750Y-90633600D03*
X176726750Y-90633600D03*
X177209350Y-90633600D03*
X177717350Y-90633600D03*
X178225350Y-90633600D03*
X178707950Y-90633600D03*
X179215950Y-90633600D03*
X179723950Y-90633600D03*
X180206550Y-90633600D03*
X180714550Y-90633600D03*
X181222550Y-90633600D03*
X181705150Y-90633600D03*
X182213150Y-90633600D03*
X182721150Y-90633600D03*
X183229150Y-90633600D03*
X183711750Y-90633600D03*
%TD*%
D21*
%TO.C,SV1*%
X163112350Y-84601100D03*
X160572350Y-84601100D03*
X158032350Y-84601100D03*
X155492350Y-84601100D03*
X152952350Y-84601100D03*
X150412350Y-84601100D03*
%TD*%
D22*
%TO.C,R1*%
X158701100Y-112702350D03*
X158701100Y-114602350D03*
%TD*%
D23*
%TO.C,X1*%
X194068600Y-124923600D03*
X191528600Y-122383600D03*
X191528600Y-127463600D03*
X196608600Y-127463600D03*
X196608600Y-122383600D03*
%TD*%
D24*
%TO.C,IC2*%
X151304850Y-120796100D03*
X151304850Y-122066100D03*
X151304850Y-124606100D03*
X156504850Y-120796100D03*
X156504850Y-122066100D03*
X156504850Y-124606100D03*
X151304850Y-123336100D03*
X156504850Y-123336100D03*
%TD*%
D25*
%TO.C,R9*%
X116122350Y-103336100D03*
X116122350Y-105236100D03*
%TD*%
%TO.C,C6*%
X112947350Y-102701100D03*
X112947350Y-104601100D03*
%TD*%
D26*
%TO.C,C11*%
X129931100Y-102539850D03*
X128031100Y-102539850D03*
%TD*%
D27*
%TO.C,C12*%
X124062350Y-105556100D03*
X125962350Y-105556100D03*
%TD*%
D28*
%TO.C,Q1*%
X129609850Y-96836100D03*
X131209850Y-96836100D03*
X131209850Y-99036100D03*
X129609850Y-99036100D03*
%TD*%
D27*
%TO.C,R13*%
X131047350Y-95078600D03*
X132947350Y-95078600D03*
%TD*%
D26*
%TO.C,C14*%
X134852350Y-97618600D03*
X132952350Y-97618600D03*
%TD*%
D27*
%TO.C,C15*%
X131047350Y-93173600D03*
X132947350Y-93173600D03*
%TD*%
D29*
%TO.C,C9*%
X119351100Y-106984850D03*
X122101100Y-106984850D03*
%TD*%
D30*
%TO.C,C16*%
X110724850Y-99418600D03*
X110724850Y-102168600D03*
%TD*%
D25*
%TO.C,C21*%
X167081100Y-110321100D03*
X167081100Y-112221100D03*
%TD*%
D30*
%TO.C,C24*%
X175812350Y-84019850D03*
X175812350Y-86769850D03*
%TD*%
D31*
%TO.C,C25*%
X148666100Y-125584225D03*
X148666100Y-122834225D03*
%TD*%
D29*
%TO.C,C26*%
X176977350Y-112223600D03*
X179727350Y-112223600D03*
%TD*%
D32*
%TO.C,C32*%
X113846100Y-94443600D03*
X111096100Y-94443600D03*
%TD*%
D30*
%TO.C,C35*%
X180733600Y-84972350D03*
X180733600Y-87722350D03*
%TD*%
D26*
%TO.C,R14*%
X136757350Y-96031100D03*
X134857350Y-96031100D03*
%TD*%
D33*
%TO.C,R17*%
X188988600Y-105236100D03*
X188988600Y-103336100D03*
%TD*%
%TO.C,R18*%
X188988600Y-101584850D03*
X188988600Y-99684850D03*
%TD*%
D26*
%TO.C,C42*%
X195018600Y-99206100D03*
X193118600Y-99206100D03*
%TD*%
D25*
%TO.C,C43*%
X188988600Y-93017350D03*
X188988600Y-94917350D03*
%TD*%
D26*
%TO.C,C44*%
X184541100Y-87776100D03*
X182641100Y-87776100D03*
%TD*%
D25*
%TO.C,C45*%
X182638600Y-84286100D03*
X182638600Y-86186100D03*
%TD*%
D33*
%TO.C,R16*%
X184543600Y-86186100D03*
X184543600Y-84286100D03*
%TD*%
D34*
%TO.C,U$2*%
X190925350Y-107334100D03*
X194989350Y-107334100D03*
X194989350Y-115589100D03*
X190925350Y-115589100D03*
X192957350Y-115589100D03*
D35*
X188956850Y-111461600D03*
X197211850Y-111461600D03*
D34*
X192957350Y-107334100D03*
%TD*%
D36*
%TO.C,IC7*%
X186924850Y-121259850D03*
%TD*%
D26*
%TO.C,C46*%
X188827350Y-125082350D03*
X186927350Y-125082350D03*
%TD*%
D25*
%TO.C,C47*%
X179463600Y-122227350D03*
X179463600Y-124127350D03*
%TD*%
D33*
%TO.C,C48*%
X179463600Y-127461100D03*
X179463600Y-125561100D03*
%TD*%
D25*
%TO.C,JMP1*%
X180257350Y-114968600D03*
X180257350Y-116668600D03*
X180257350Y-118368600D03*
%TD*%
D37*
%TO.C,LED2*%
X158826100Y-119529850D03*
X158826100Y-116029850D03*
%TD*%
D27*
%TO.C,C57*%
X151287975Y-126193600D03*
X153187975Y-126193600D03*
%TD*%
D38*
%TO.C,X2*%
X142474850Y-83364850D03*
D39*
X141204850Y-83364850D03*
D38*
X143744850Y-83364850D03*
D39*
X139934850Y-83364850D03*
D38*
X145014850Y-83364850D03*
D39*
X138664850Y-83364850D03*
D38*
X146284850Y-83364850D03*
D39*
X137394850Y-83364850D03*
%TD*%
D25*
%TO.C,R21*%
X188988600Y-96192350D03*
X188988600Y-98092350D03*
%TD*%
D40*
%TO.C,J2*%
X108962350Y-89839850D03*
X102962350Y-89839850D03*
D41*
X105962350Y-94639850D03*
%TD*%
D23*
%TO.C,S1*%
X103714450Y-104140050D03*
X103714450Y-97129650D03*
D42*
X101225250Y-102895450D03*
X101225250Y-98374250D03*
%TD*%
D43*
%TO.C,RJ2*%
X105168600Y-121589850D03*
X105168600Y-110159850D03*
D44*
X100215600Y-119938850D03*
X100215600Y-122478850D03*
X114058600Y-112699850D03*
D45*
X111518600Y-111429850D03*
D46*
X108089600Y-107873850D03*
X108089600Y-123875850D03*
D44*
X114058600Y-117779850D03*
X111518600Y-113969850D03*
X111518600Y-116509850D03*
X114058600Y-115239850D03*
X111518600Y-119049850D03*
X114058600Y-120319850D03*
X100215600Y-111810850D03*
X100215600Y-109270850D03*
%TD*%
D47*
%TO.C,L3*%
X184456100Y-125399850D03*
X181456100Y-125399850D03*
%TD*%
D48*
%TO.C,L4*%
X108184850Y-99134850D03*
X108184850Y-102134850D03*
%TD*%
D49*
%TO.C,T1*%
X191160300Y-101269850D03*
X191160300Y-102539850D03*
X191160300Y-103809850D03*
X194436900Y-101269850D03*
X194436900Y-103809850D03*
%TD*%
D50*
%TO.C,R22\u002A0*%
X187242350Y-97603600D03*
X187242350Y-95903600D03*
%TD*%
D51*
%TO.C,TP1*%
X148189850Y-83172350D03*
%TD*%
%TO.C,TP2*%
X135489850Y-86188600D03*
%TD*%
D52*
%TO.C,L1*%
X192957350Y-107772350D03*
X192957350Y-109372350D03*
%TD*%
%TO.C,L5*%
X192957350Y-113487350D03*
X192957350Y-115087350D03*
%TD*%
%TO.C,L6*%
X192957350Y-110629850D03*
X192957350Y-112229850D03*
%TD*%
D53*
%TO.C,C60*%
X192957350Y-115398600D03*
X191052350Y-115398600D03*
%TD*%
%TO.C,C61*%
X191528600Y-112223600D03*
X189623600Y-112223600D03*
%TD*%
%TO.C,C62*%
X191528600Y-110636100D03*
X189623600Y-110636100D03*
%TD*%
%TO.C,C63*%
X192957350Y-107143600D03*
X191052350Y-107143600D03*
%TD*%
%TO.C,C17*%
X191369850Y-118097350D03*
X189464850Y-118097350D03*
%TD*%
D54*
%TO.C,IC10*%
X170573600Y-124348600D03*
X171843600Y-124348600D03*
X174383600Y-124348600D03*
X170573600Y-119148600D03*
X171843600Y-119148600D03*
X174383600Y-119148600D03*
X173113600Y-124348600D03*
X173113600Y-119148600D03*
%TD*%
D55*
%TO.C,C64*%
X171843600Y-126352350D03*
X173748600Y-126352350D03*
%TD*%
D56*
%TO.C,R24*%
X176662350Y-126669850D03*
X174962350Y-126669850D03*
%TD*%
D57*
%TO.C,C65*%
X177399850Y-120824850D03*
X177399850Y-123624850D03*
%TD*%
D58*
%TO.C,C66*%
X175653600Y-120637350D03*
X175653600Y-118732350D03*
%TD*%
D55*
%TO.C,C67*%
X175812350Y-125241100D03*
X177717350Y-125241100D03*
%TD*%
D59*
%TO.C,R25*%
X168612350Y-126511100D03*
X170312350Y-126511100D03*
%TD*%
D56*
%TO.C,R26*%
X167137350Y-126511100D03*
X165437350Y-126511100D03*
%TD*%
D60*
%TO.C,L7*%
X166287350Y-124113600D03*
X166287350Y-118113600D03*
%TD*%
D57*
%TO.C,C68*%
X161524850Y-120666100D03*
X161524850Y-123466100D03*
%TD*%
D50*
%TO.C,R27*%
X175653600Y-123551100D03*
X175653600Y-121851100D03*
%TD*%
D61*
%TO.C,IC11*%
X118344850Y-84858600D03*
X117074850Y-84858600D03*
X114534850Y-84858600D03*
X118344850Y-90058600D03*
X117074850Y-90058600D03*
X114534850Y-90058600D03*
X115804850Y-84858600D03*
X115804850Y-90058600D03*
%TD*%
D53*
%TO.C,C69*%
X117074850Y-82854850D03*
X115169850Y-82854850D03*
%TD*%
D59*
%TO.C,R28*%
X112256100Y-82854850D03*
X113956100Y-82854850D03*
%TD*%
D62*
%TO.C,C70*%
X111359850Y-88699850D03*
X111359850Y-85899850D03*
%TD*%
D63*
%TO.C,C71*%
X113106100Y-88887350D03*
X113106100Y-90792350D03*
%TD*%
D53*
%TO.C,C72*%
X113264850Y-84283600D03*
X111359850Y-84283600D03*
%TD*%
D56*
%TO.C,R29*%
X120306100Y-82854850D03*
X118606100Y-82854850D03*
%TD*%
D59*
%TO.C,R30*%
X121781100Y-82854850D03*
X123481100Y-82854850D03*
%TD*%
D64*
%TO.C,L8*%
X122789850Y-85093600D03*
X122789850Y-91093600D03*
%TD*%
D62*
%TO.C,C73*%
X127552350Y-87906100D03*
X127552350Y-85106100D03*
%TD*%
D65*
%TO.C,R31*%
X113106100Y-85814850D03*
X113106100Y-87514850D03*
%TD*%
D66*
%TO.C,P1*%
X177399850Y-117621100D03*
%TD*%
%TO.C,P2*%
X127393600Y-91744850D03*
%TD*%
%TO.C,P3*%
X127552350Y-82219850D03*
%TD*%
%TO.C,P4*%
X111518600Y-82219850D03*
%TD*%
%TO.C,P5*%
X111518600Y-91903600D03*
%TD*%
%TO.C,P6*%
X161207350Y-127146100D03*
%TD*%
%TO.C,P7*%
X161366100Y-117779850D03*
%TD*%
%TO.C,P8*%
X177241100Y-127304850D03*
%TD*%
D67*
%TO.C,IC12*%
X185019850Y-108756100D03*
D68*
X187319850Y-115056100D03*
X185019850Y-115056100D03*
X182719850Y-115056100D03*
%TD*%
D69*
%TO.C,R32*%
X187401100Y-95569850D03*
X187401100Y-94269850D03*
%TD*%
D70*
%TO.C,R33*%
X187401100Y-92999850D03*
X187401100Y-94299850D03*
%TD*%
D71*
%TO.C,X3*%
X195148100Y-96666100D03*
D72*
X196164100Y-99206100D03*
X196164100Y-94126100D03*
%TD*%
D69*
%TO.C,R34*%
X195021100Y-98268600D03*
X195021100Y-96968600D03*
%TD*%
D55*
%TO.C,C74*%
X193274850Y-96666100D03*
X195179850Y-96666100D03*
%TD*%
D28*
%TO.C,Q2*%
X190728600Y-94772350D03*
X192328600Y-94772350D03*
X192328600Y-96972350D03*
X190728600Y-96972350D03*
%TD*%
D73*
%TO.C,LED3*%
X196132350Y-92538600D03*
D74*
X196132350Y-89998600D03*
%TD*%
D73*
%TO.C,LED1*%
X196132350Y-88252350D03*
D74*
X196132350Y-85712350D03*
%TD*%
D75*
%TO.C,C76*%
X187718600Y-83489850D03*
D76*
X187718600Y-89839850D03*
%TD*%
D77*
%TO.C,C77*%
X191211100Y-87458600D03*
D78*
X191211100Y-84918600D03*
%TD*%
D56*
%TO.C,R36*%
X192219850Y-90633600D03*
X190519850Y-90633600D03*
%TD*%
D59*
%TO.C,R37*%
X190519850Y-89204850D03*
X192219850Y-89204850D03*
%TD*%
D50*
%TO.C,R38*%
X192798600Y-87514850D03*
X192798600Y-85814850D03*
%TD*%
D79*
%TO.C,ANT1*%
X163429850Y-109588350D03*
D80*
X161929850Y-111112350D03*
X164929850Y-111112350D03*
%TD*%
D58*
%TO.C,C80*%
X148348600Y-86664850D03*
X148348600Y-84759850D03*
%TD*%
D73*
%TO.C,LED4*%
X196449850Y-106508600D03*
D74*
X196449850Y-103968600D03*
%TD*%
D81*
%TO.C,IC1*%
X137315475Y-123567800D03*
X136045475Y-123567800D03*
X134775475Y-123567800D03*
X133505475Y-123567800D03*
X132235475Y-123567800D03*
X130965475Y-123567800D03*
X129695475Y-123567800D03*
X128425475Y-123567800D03*
X127155475Y-123567800D03*
X125885475Y-123567800D03*
X124615475Y-123567800D03*
X123345475Y-123567800D03*
X122075475Y-123567800D03*
X120805475Y-123567800D03*
X119535475Y-123567800D03*
X118265475Y-123567800D03*
X118265475Y-112311400D03*
X119535475Y-112311400D03*
X120805475Y-112311400D03*
X122075475Y-112311400D03*
X123345475Y-112311400D03*
X124615475Y-112311400D03*
X125885475Y-112311400D03*
X127155475Y-112311400D03*
X128425475Y-112311400D03*
X129695475Y-112311400D03*
X130965475Y-112311400D03*
X132235475Y-112311400D03*
X133505475Y-112311400D03*
X134775475Y-112311400D03*
X136045475Y-112311400D03*
X137315475Y-112311400D03*
%TD*%
G36*
X191947889Y-108750785D02*
G01*
X191993644Y-108803589D01*
X192004850Y-108855100D01*
X192004850Y-109242100D01*
X191985165Y-109309139D01*
X191932361Y-109354894D01*
X191880850Y-109366100D01*
X191493850Y-109366100D01*
X191426811Y-109346415D01*
X191381056Y-109293611D01*
X191369850Y-109242100D01*
X191369850Y-108855100D01*
X191389535Y-108788061D01*
X191442339Y-108742306D01*
X191493850Y-108731100D01*
X191880850Y-108731100D01*
X191947889Y-108750785D01*
G37*
G36*
X194487889Y-108750785D02*
G01*
X194533644Y-108803589D01*
X194544850Y-108855100D01*
X194544850Y-109242100D01*
X194525165Y-109309139D01*
X194472361Y-109354894D01*
X194420850Y-109366100D01*
X194033850Y-109366100D01*
X193966811Y-109346415D01*
X193921056Y-109293611D01*
X193909850Y-109242100D01*
X193909850Y-108855100D01*
X193929535Y-108788061D01*
X193982339Y-108742306D01*
X194033850Y-108731100D01*
X194420850Y-108731100D01*
X194487889Y-108750785D01*
G37*
G36*
X198344139Y-80123285D02*
G01*
X198389894Y-80176089D01*
X198401100Y-80227600D01*
X198401100Y-81629600D01*
X198381415Y-81696639D01*
X198328611Y-81742394D01*
X198277100Y-81753600D01*
X98725100Y-81753600D01*
X98658061Y-81733915D01*
X98612306Y-81681111D01*
X98601100Y-81629600D01*
X98601100Y-80227600D01*
X98620785Y-80160561D01*
X98673589Y-80114806D01*
X98725100Y-80103600D01*
X198277100Y-80103600D01*
X198344139Y-80123285D01*
G37*
G36*
X198344139Y-128023285D02*
G01*
X198389894Y-128076089D01*
X198401100Y-128127600D01*
X198401100Y-129779600D01*
X198381415Y-129846639D01*
X198328611Y-129892394D01*
X198277100Y-129903600D01*
X98725100Y-129903600D01*
X98658061Y-129883915D01*
X98612306Y-129831111D01*
X98601100Y-129779600D01*
X98601100Y-128127600D01*
X98620785Y-128060561D01*
X98673589Y-128014806D01*
X98725100Y-128003600D01*
X198277100Y-128003600D01*
X198344139Y-128023285D01*
G37*
G36*
X136544139Y-82323285D02*
G01*
X136589894Y-82376089D01*
X136601100Y-82427600D01*
X136601100Y-84318350D01*
X136581415Y-84385389D01*
X136528611Y-84431144D01*
X136477100Y-84442350D01*
X135772600Y-84442350D01*
X135705561Y-84422665D01*
X135659806Y-84369861D01*
X135648600Y-84318350D01*
X135648600Y-82427600D01*
X135668285Y-82360561D01*
X135721089Y-82314806D01*
X135772600Y-82303600D01*
X136477100Y-82303600D01*
X136544139Y-82323285D01*
G37*
G36*
X118605389Y-86593285D02*
G01*
X118651144Y-86646089D01*
X118662350Y-86697600D01*
X118662350Y-88219600D01*
X118642665Y-88286639D01*
X118589861Y-88332394D01*
X118538350Y-88343600D01*
X117357600Y-88343600D01*
X117290561Y-88323915D01*
X117244806Y-88271111D01*
X117233600Y-88219600D01*
X117233600Y-88093600D01*
X114341350Y-88093600D01*
X114274311Y-88073915D01*
X114228556Y-88021111D01*
X114217350Y-87969600D01*
X114217350Y-86947600D01*
X114237035Y-86880561D01*
X114289839Y-86834806D01*
X114341350Y-86823600D01*
X116281100Y-86823600D01*
X116281100Y-86697600D01*
X116300785Y-86630561D01*
X116353589Y-86584806D01*
X116405100Y-86573600D01*
X118538350Y-86573600D01*
X118605389Y-86593285D01*
G37*
G36*
X118605389Y-86367035D02*
G01*
X118651144Y-86419839D01*
X118662350Y-86471350D01*
X118662350Y-86949600D01*
X118642665Y-87016639D01*
X118589861Y-87062394D01*
X118538350Y-87073600D01*
X116293311Y-87073600D01*
X116269121Y-87071218D01*
X116259066Y-87069218D01*
X116197154Y-87036833D01*
X116162580Y-86976117D01*
X116166319Y-86906348D01*
X116207185Y-86849676D01*
X116272203Y-86824094D01*
X116280999Y-86823700D01*
X116281100Y-86823600D01*
X116281100Y-86471350D01*
X116300785Y-86404311D01*
X116353589Y-86358556D01*
X116405100Y-86347350D01*
X118538350Y-86347350D01*
X118605389Y-86367035D01*
G37*
G36*
X118605389Y-87863285D02*
G01*
X118651144Y-87916089D01*
X118662350Y-87967600D01*
X118662350Y-88445850D01*
X118642665Y-88512889D01*
X118589861Y-88558644D01*
X118538350Y-88569850D01*
X117357600Y-88569850D01*
X117290561Y-88550165D01*
X117244806Y-88497361D01*
X117233600Y-88445850D01*
X117233600Y-88093600D01*
X117232703Y-88092703D01*
X117168717Y-88073915D01*
X117122962Y-88021111D01*
X117113018Y-87951953D01*
X117142043Y-87888397D01*
X117200821Y-87850623D01*
X117211566Y-87847982D01*
X117221621Y-87845982D01*
X117245811Y-87843600D01*
X118538350Y-87843600D01*
X118605389Y-87863285D01*
G37*
G36*
X171310389Y-121042035D02*
G01*
X171356144Y-121094839D01*
X171367350Y-121146350D01*
X171367350Y-121272350D01*
X174577100Y-121272350D01*
X174644139Y-121292035D01*
X174689894Y-121344839D01*
X174701100Y-121396350D01*
X174701100Y-122259600D01*
X174681415Y-122326639D01*
X174628611Y-122372394D01*
X174577100Y-122383600D01*
X172796100Y-122383600D01*
X172796100Y-122509600D01*
X172776415Y-122576639D01*
X172723611Y-122622394D01*
X172672100Y-122633600D01*
X170380100Y-122633600D01*
X170313061Y-122613915D01*
X170267306Y-122561111D01*
X170256100Y-122509600D01*
X170256100Y-121146350D01*
X170275785Y-121079311D01*
X170328589Y-121033556D01*
X170380100Y-121022350D01*
X171243350Y-121022350D01*
X171310389Y-121042035D01*
G37*
G36*
X171310389Y-120657035D02*
G01*
X171356144Y-120709839D01*
X171367350Y-120761350D01*
X171367350Y-121272350D01*
X171368246Y-121273246D01*
X171432233Y-121292035D01*
X171477988Y-121344839D01*
X171487932Y-121413997D01*
X171458907Y-121477553D01*
X171400129Y-121515327D01*
X171389384Y-121517968D01*
X171379329Y-121519968D01*
X171355139Y-121522350D01*
X170380100Y-121522350D01*
X170313061Y-121502665D01*
X170267306Y-121449861D01*
X170256100Y-121398350D01*
X170256100Y-120761350D01*
X170275785Y-120694311D01*
X170328589Y-120648556D01*
X170380100Y-120637350D01*
X171243350Y-120637350D01*
X171310389Y-120657035D01*
G37*
G36*
X172808079Y-122135982D02*
G01*
X172818134Y-122137982D01*
X172880046Y-122170367D01*
X172914620Y-122231083D01*
X172910881Y-122300852D01*
X172870015Y-122357524D01*
X172804997Y-122383106D01*
X172796200Y-122383499D01*
X172796100Y-122383600D01*
X172796100Y-122735850D01*
X172776415Y-122802889D01*
X172723611Y-122848644D01*
X172672100Y-122859850D01*
X170380100Y-122859850D01*
X170313061Y-122840165D01*
X170267306Y-122787361D01*
X170256100Y-122735850D01*
X170256100Y-122257600D01*
X170275785Y-122190561D01*
X170328589Y-122144806D01*
X170380100Y-122133600D01*
X172783889Y-122133600D01*
X172808079Y-122135982D01*
G37*
G36*
X195996014Y-123990785D02*
G01*
X196041769Y-124043589D01*
X196052975Y-124095100D01*
X196052975Y-125593350D01*
X196033290Y-125660389D01*
X195980486Y-125706144D01*
X195928975Y-125717350D01*
X194986350Y-125717350D01*
X194919311Y-125697665D01*
X194873556Y-125644861D01*
X194862350Y-125593350D01*
X194862350Y-124095100D01*
X194882035Y-124028061D01*
X194934839Y-123982306D01*
X194986350Y-123971100D01*
X195928975Y-123971100D01*
X195996014Y-123990785D01*
G37*
M02*
