M48
; DRILL file {KiCad 9.0.7} date 2026-01-09T15:06:50-0800
; FORMAT={-:-/ absolute / metric / decimal}
; #@! TF.CreationDate,2026-01-09T15:06:50-08:00
; #@! TF.GenerationSoftware,Kicad,Pcbnew,9.0.7
; #@! TF.FileFunction,Plated,1,2,PTH
FMAT,2
METRIC
; #@! TA.AperFunction,Plated,PTH,ViaDrill
T1C0.300
; #@! TA.AperFunction,Plated,PTH,ViaDrill
T2C0.400
; #@! TA.AperFunction,Plated,PTH,ViaDrill
T3C0.500
; #@! TA.AperFunction,Plated,PTH,ViaDrill
T4C0.600
; #@! TA.AperFunction,Plated,PTH,ComponentDrill
T5C0.800
; #@! TA.AperFunction,Plated,PTH,ComponentDrill
T6C0.813
; #@! TA.AperFunction,Plated,PTH,ComponentDrill
T7C1.000
; #@! TA.AperFunction,Plated,PTH,ComponentDrill
T8C1.016
; #@! TA.AperFunction,Plated,PTH,ComponentDrill
T9C1.499
; #@! TA.AperFunction,Plated,PTH,ComponentDrill
T10C1.500
; #@! TA.AperFunction,Plated,PTH,ComponentDrill
T11C1.600
; #@! TA.AperFunction,Plated,PTH,ComponentDrill
T12C1.651
; #@! TA.AperFunction,Plated,PTH,ViaDrill
T13C2.000
%
G90
G05
T1
X106.756Y-100.635
X108.82Y-103.334
X109.852Y-106.27
X110.725Y-98.254
X112.471Y-97.777
X112.947Y-96.507
X113.265Y-99.762
X113.741Y-107.302
X114.217Y-99.206
X114.269Y-96.932
X114.852Y-87.776
X115.17Y-98.254
X117.075Y-110.795
X117.075Y-121.272
X117.71Y-87.459
X117.71Y-105.397
X117.71Y-106.509
X119.535Y-109.604
X119.774Y-101.825
X119.932Y-87.935
X120.726Y-97.777
X120.726Y-118.891
X120.885Y-114.764
X122.155Y-108.731
X122.234Y-126.59
X122.472Y-101.667
X123.107Y-96.428
X123.107Y-100.952
X123.584Y-93.174
X123.901Y-126.59
X124.06Y-119.923
X125.171Y-82.379
X125.171Y-106.826
X125.647Y-118.494
X125.806Y-90.316
X126.124Y-103.651
X126.282Y-93.57
X126.6Y-114.922
X127.155Y-113.335
X127.235Y-97.936
X127.235Y-100.635
X128.187Y-96.031
X128.187Y-97.301
X128.664Y-122.066
X128.981Y-115.081
X129.934Y-101.429
X130.41Y-89.364
X130.727Y-83.331
X130.727Y-93.491
X131.045Y-102.381
X131.362Y-96.507
X132.95Y-114.129
X134.061Y-99.365
X134.537Y-84.76
X134.537Y-95.079
X134.696Y-88.252
X136.68Y-113.494
X137.077Y-86.824
X137.315Y-117.939
X137.395Y-84.76
X139.141Y-111.271
X140.252Y-94.602
X140.252Y-110.477
X140.332Y-117.78
X140.57Y-99.841
X140.57Y-104.286
X140.729Y-90.316
X140.729Y-93.65
X140.887Y-112.224
X141.522Y-106.032
X141.681Y-90.475
X141.681Y-96.984
X141.681Y-99.047
X142.157Y-94.761
X142.316Y-103.81
X142.316Y-108.255
X142.634Y-97.936
X142.792Y-91.586
X143.11Y-95.714
X143.427Y-102.064
X143.427Y-105.239
X144.062Y-92.539
X144.062Y-99.682
X144.3Y-124.368
X144.539Y-108.493
X145.332Y-96.984
X145.332Y-104.921
X145.809Y-95.872
X145.967Y-92.539
X145.967Y-102.064
X146.205Y-122.622
X146.444Y-107.54
X146.602Y-96.984
X146.602Y-104.921
X146.602Y-125.241
X148.19Y-89.84
X148.349Y-83.49
X148.507Y-108.731
X149.027Y-90.555
X149.46Y-119.05
X149.46Y-124.924
X149.777Y-87.141
X149.777Y-89.84
X149.777Y-92.062
X149.936Y-106.191
X150.015Y-119.844
X150.095Y-94.444
X150.095Y-100.159
X150.095Y-122.066
X150.254Y-93.332
X150.254Y-104.127
X150.492Y-118.653
X150.889Y-117.7
X150.968Y-102.064
X151.027Y-100.615
X151.365Y-119.685
X151.841Y-96.587
X152.714Y-93.332
X152.714Y-116.113
X152.794Y-113.97
X153.111Y-90.475
X153.429Y-121.907
X153.587Y-96.587
X153.587Y-120.479
X153.984Y-102.778
X154.064Y-86.665
X154.222Y-114.446
X154.222Y-119.844
X154.381Y-124.924
X155.492Y-115.24
X156.127Y-118.415
X156.604Y-100.952
X156.604Y-108.414
X157.08Y-90.634
X157.397Y-116.034
X158.032Y-92.062
X158.191Y-122.86
X158.35Y-95.396
X158.35Y-100.794
X158.509Y-102.857
X158.509Y-103.969
X158.509Y-105.08
X158.509Y-106.191
X158.826Y-117.78
X159.064Y-122.86
X159.461Y-89.046
X159.858Y-122.145
X159.937Y-110.636
X160.89Y-109.207
X161.842Y-86.824
X161.842Y-89.681
X161.842Y-113.494
X162.16Y-108.89
X162.795Y-107.461
X163.747Y-100.0
X163.985Y-107.858
X165.335Y-85.554
X165.335Y-120.796
X165.652Y-113.017
X165.811Y-107.779
X165.811Y-110.795
X166.129Y-89.84
X166.446Y-88.411
X166.446Y-91.427
X167.875Y-110.319
X168.034Y-108.255
X168.669Y-91.427
X169.621Y-87.617
X169.939Y-105.715
X170.256Y-89.84
X170.574Y-121.272
X171.367Y-88.729
X171.526Y-104.445
X171.685Y-99.841
X172.32Y-108.096
X172.796Y-92.221
X172.796Y-102.699
X173.431Y-93.174
X173.51Y-84.522
X173.907Y-121.907
X174.384Y-86.982
X174.542Y-85.395
X174.701Y-92.221
X175.177Y-104.445
X175.177Y-111.906
X175.654Y-128.099
X176.289Y-102.699
X177.082Y-110.16
X177.241Y-107.461
X177.559Y-87.776
X177.638Y-84.363
X178.511Y-85.395
X178.67Y-104.445
X178.987Y-87.3
X179.305Y-109.684
X179.781Y-113.652
X179.781Y-120.637
X180.575Y-109.684
X180.734Y-83.252
X181.845Y-92.062
X181.845Y-94.285
X181.845Y-109.684
X181.845Y-113.176
X182.321Y-99.047
X182.797Y-104.445
X182.956Y-116.669
X182.956Y-117.939
X182.956Y-119.209
X182.956Y-120.479
X182.956Y-121.907
X182.956Y-123.177
X182.956Y-124.447
X182.956Y-126.352
X182.956Y-127.622
X183.75Y-93.491
X183.75Y-98.73
X184.226Y-116.669
X184.226Y-127.622
X184.702Y-89.205
X184.861Y-105.08
X185.496Y-127.622
X185.655Y-116.669
X186.449Y-85.395
X186.607Y-106.032
X186.766Y-91.824
X186.766Y-98.73
X186.766Y-127.622
X186.925Y-116.669
X186.925Y-117.462
X186.925Y-118.415
X186.925Y-119.367
X186.925Y-120.32
X186.925Y-121.272
X186.925Y-122.225
X186.925Y-123.177
X187.084Y-97.777
X187.562Y-100.0
X187.877Y-111.43
X188.036Y-107.937
X188.036Y-123.177
X188.195Y-127.622
X188.354Y-116.51
X189.306Y-123.177
X189.465Y-119.685
X189.624Y-86.665
X189.624Y-109.366
X189.624Y-116.351
X189.624Y-122.225
X189.624Y-127.622
X189.782Y-92.539
X189.941Y-111.43
X190.417Y-102.54
X190.417Y-119.685
X190.894Y-108.414
X190.894Y-114.605
X190.894Y-116.351
X191.37Y-105.715
X191.529Y-119.685
X191.767Y-99.365
X191.925Y-92.697
X192.799Y-102.54
X192.799Y-104.921
X193.592Y-90.316
X193.91Y-82.617
X194.069Y-87.141
X194.069Y-119.367
X194.624Y-96.666
X194.704Y-109.684
X194.704Y-110.795
X194.704Y-111.747
X194.704Y-112.859
X195.021Y-106.191
X195.021Y-108.572
X195.021Y-114.605
X195.021Y-116.827
X195.497Y-107.461
X195.656Y-94.126
X195.656Y-96.666
X195.656Y-99.206
X195.974Y-101.27
X195.974Y-102.54
X196.132Y-111.43
X197.561Y-94.126
X197.561Y-99.206
T2
X108.185Y-98.254
X110.725Y-103.334
X115.17Y-101.429
X119.932Y-105.239
X122.472Y-105.239
X124.536Y-118.256
X127.155Y-122.78
X127.394Y-105.318
X128.425Y-111.271
X137.077Y-92.38
X137.077Y-100.0
X139.141Y-109.366
X144.539Y-125.717
X146.162Y-86.506
X149.142Y-112.859
X151.841Y-117.304
X153.587Y-112.859
X156.71Y-112.859
X164.859Y-92.856
X164.859Y-99.682
X164.859Y-106.667
X166.605Y-93.809
X166.764Y-102.857
X167.716Y-102.064
X168.51Y-93.501
X172.161Y-87.776
X173.907Y-88.729
X174.225Y-108.414
X175.177Y-109.366
X175.812Y-87.776
X176.606Y-88.729
X177.876Y-109.366
X179.146Y-88.729
X179.305Y-108.414
X182.797Y-89.046
X184.226Y-107.144
X186.766Y-104.286
X186.925Y-95.714
X186.925Y-100.794
T3
X175.971Y-96.349
X175.971Y-97.46
X175.971Y-98.889
X175.971Y-100.0
X177.082Y-96.349
X177.082Y-97.46
X177.082Y-98.889
X177.082Y-100.0
X178.352Y-96.349
X178.352Y-97.46
X178.352Y-98.889
X178.352Y-100.0
X179.464Y-96.349
X179.464Y-97.46
X179.464Y-98.889
X179.464Y-100.0
X180.734Y-112.224
T4
X115.805Y-93.65
X166.922Y-112.7
X180.257Y-119.05
X187.242Y-113.811
T5
X102.962Y-89.84
X105.962Y-94.64
T6
X100.216Y-109.271
X100.216Y-111.811
X100.216Y-119.939
X100.216Y-122.479
X111.519Y-82.22
X111.519Y-91.904
X111.519Y-111.43
X111.519Y-113.97
X111.519Y-116.51
X111.519Y-119.05
X114.059Y-112.7
X114.059Y-115.24
X114.059Y-117.78
X114.059Y-120.32
X127.394Y-91.745
X127.552Y-82.22
X161.207Y-127.146
X161.366Y-117.78
X177.241Y-127.305
X177.4Y-117.621
X196.132Y-85.712
X196.132Y-88.252
X196.132Y-89.999
X196.132Y-92.539
X196.45Y-103.969
X196.45Y-106.509
T7
X108.962Y-89.84
T8
X101.225Y-98.374
X101.225Y-102.895
X150.412Y-84.601
X152.952Y-84.601
X155.492Y-84.601
X158.032Y-84.601
X160.572Y-84.601
X163.112Y-84.601
T9
X103.714Y-97.13
X103.714Y-104.14
T10
X194.069Y-124.924
T11
X191.529Y-122.384
X191.529Y-127.464
X196.609Y-122.384
X196.609Y-127.464
T12
X108.09Y-107.874
X108.09Y-123.876
T13
X100.565Y-82.061
X100.565Y-127.94
X196.45Y-82.061
X196.45Y-118.891
M30
